<svg xmlns="http://www.w3.org/2000/svg" xmlns:xlink="http://www.w3.org/1999/xlink" viewBox="0 0 2340 1560" xmlns:v="https://vecta.io/nano"><style><![CDATA[.A{isolation:isolate}.Bt,.CO,.a,.Aj{mix-blend-mode:multiply}.Bu,.Bv,.AZ,.Ab{mix-blend-mode:overlay}.CT{fill:#f9cb69}.CU{fill:#f7941e}.CV{fill:#fae468}.CW{fill:#f9baa9}.CX{fill:#d84c93}.CY{fill:#fa9f62}.CZ{fill:#ecf3fa}.Ca{fill:#fbb040}.Cb{opacity:.07}.Cc{fill:#ee61a2}.Cd{fill:#2b778f}.Ce{fill:#f9a4a9}.Cf{fill:#bbda52}.Cg{fill:#ecf5ff}.Ch{fill:#5f64a6}.Ci{fill:#f9b9a8}.Cj{fill:#b54d50}.Ck{fill:#2f8ed0}.Cl{fill:#293a46}.Cm{fill:#e5e6e7}]]></style><defs><linearGradient id="A" x1="737.02" y1="667.73" x2="737.02" y2="577.69" xlink:href="#Bk"><stop offset="0" stop-color="#ebf2fa"/><stop offset=".2" stop-color="#e6f1fa"/><stop offset=".42" stop-color="#d9edf9"/><stop offset=".66" stop-color="#c2e6f9"/><stop offset=".9" stop-color="#a3ddf8"/><stop offset="1" stop-color="#94d9f7"/></linearGradient><linearGradient id="B" x1="799.94" y1="665.89" x2="799.94" y2="505.15" xlink:href="#A"/><linearGradient id="C" x1="737.02" y1="603.95" x2="737.02" y2="537.53" xlink:href="#Bk"><stop offset="0" stop-color="#db6777"/><stop offset="1" stop-color="#c34397"/></linearGradient><linearGradient id="D" x1="705.64" y1="562.68" x2="831.47" y2="562.68" xlink:href="#Bk"><stop offset="0" stop-color="#f17379"/><stop offset="1" stop-color="#ee529c"/></linearGradient><linearGradient id="E" x1="799.94" y1="602.6" x2="799.94" y2="483.88" xlink:href="#D"/><linearGradient id="F" x1="809.9" y1="587.53" x2="818.01" y2="587.53" xlink:href="#Bk"><stop offset="0" stop-color="#7795db"/><stop offset=".27" stop-color="#7292db"/><stop offset=".61" stop-color="#6387db"/><stop offset=".97" stop-color="#4b77db"/><stop offset="1" stop-color="#4875db"/></linearGradient><linearGradient id="G" x1="796.76" y1="595.13" x2="804.86" y2="595.13" xlink:href="#F"/><linearGradient id="H" y1="572.43" y2="482.4" xlink:href="#A"/><linearGradient id="I" x1="799.94" y1="570.59" x2="799.94" y2="409.85" xlink:href="#A"/><linearGradient id="J" y1="508.66" y2="442.24" xlink:href="#C"/><linearGradient id="K" y1="467.38" y2="467.38" xlink:href="#D"/><linearGradient id="L" x1="799.94" y1="602.61" x2="799.94" y2="483.88" xlink:href="#D"/><linearGradient id="M" y1="492.24" y2="492.24" xlink:href="#F"/><linearGradient id="N" x1="796.76" y1="499.83" x2="804.86" y2="499.83" xlink:href="#F"/><linearGradient id="O" x1="783.6" y1="507.43" x2="791.7" y2="507.43" xlink:href="#F"/><linearGradient id="P" xlink:href="#A"/><linearGradient id="Q" x1="799.94" y1="475.3" x2="799.94" y2="314.56" xlink:href="#A"/><linearGradient id="R" xlink:href="#C"/><linearGradient id="S" xlink:href="#D"/><linearGradient id="T" x1="799.94" y1="412.01" x2="799.94" y2="293.29" xlink:href="#D"/><linearGradient id="U" y1="396.94" y2="396.94" xlink:href="#F"/><linearGradient id="V" x1="796.76" y1="404.54" x2="804.86" y2="404.54" xlink:href="#F"/><linearGradient id="W" x1="363.21" y1="883.42" x2="363.21" y2="793.38" xlink:href="#A"/><linearGradient id="X" x1="426.12" y1="881.58" x2="426.12" y2="720.84" xlink:href="#A"/><linearGradient id="Y" y1="508.65" y2="442.23" xlink:href="#C"/><linearGradient id="Z" x1="331.83" y1="778.37" x2="457.66" y2="778.37" xlink:href="#D"/><linearGradient id="a" x1="426.12" y1="818.3" x2="426.12" y2="699.57" xlink:href="#D"/><linearGradient id="b" x1="436.09" y1="803.22" x2="444.2" y2="803.22" xlink:href="#F"/><linearGradient id="c" x1="422.95" y1="810.82" x2="431.05" y2="810.82" xlink:href="#F"/><linearGradient id="d" x1="409.79" y1="818.42" x2="417.89" y2="818.42" xlink:href="#F"/><linearGradient id="e" x1="363.21" y1="788.12" x2="363.21" y2="698.09" xlink:href="#A"/><linearGradient id="f" x1="426.12" y1="786.29" x2="426.12" y2="625.55" xlink:href="#A"/><linearGradient id="g" x1="363.21" y1="724.35" x2="363.21" y2="657.93" xlink:href="#C"/><linearGradient id="h" x1="331.83" y1="683.07" x2="457.66" y2="683.07" xlink:href="#D"/><linearGradient id="i" x1="436.09" y1="707.93" x2="444.2" y2="707.93" xlink:href="#F"/><linearGradient id="j" x1="422.95" y1="715.52" x2="431.05" y2="715.52" xlink:href="#F"/><linearGradient id="k" x1="409.79" y1="723.12" x2="417.89" y2="723.12" xlink:href="#F"/><linearGradient id="l" xlink:href="#A"/><linearGradient id="m" x1="426.12" y1="690.99" x2="426.12" y2="530.25" xlink:href="#A"/><linearGradient id="n" x1="426.12" y1="818.29" x2="426.12" y2="699.57" xlink:href="#D"/><linearGradient id="o" x1="436.09" y1="612.63" x2="444.2" y2="612.63" xlink:href="#F"/><linearGradient id="p" x1="1230.97" y1="897.28" x2="1230.97" y2="500.93" xlink:href="#Bk"><stop offset="0" stop-color="#ebf4ff"/><stop offset=".19" stop-color="#e6f3ff"/><stop offset=".4" stop-color="#d9f1ff"/><stop offset=".63" stop-color="#c2ecff"/><stop offset=".86" stop-color="#a3e6ff"/><stop offset="1" stop-color="#8ce2ff"/></linearGradient><linearGradient id="q" x1="1122.15" y1="889.11" x2="1122.15" y2="183.01" xlink:href="#p"/><linearGradient id="r" x1="1092" y1="516.79" x2="1141.72" y2="516.79" xlink:href="#Bk"><stop offset="0" stop-color="#6490e8"/><stop offset=".46" stop-color="#9e67d7"/><stop offset="1" stop-color="#e834c2"/></linearGradient><linearGradient id="s" x1="1081.7" y1="610.11" x2="1149.9" y2="610.11" xlink:href="#r"/><linearGradient id="t" x1="1386.37" y1="987.14" x2="1386.37" y2="590.79" xlink:href="#p"/><linearGradient id="u" x1="1277.56" y1="978.97" x2="1277.56" y2="272.87" xlink:href="#p"/><linearGradient id="v" x1="1247.41" y1="606.65" x2="1297.13" y2="606.65" xlink:href="#r"/><linearGradient id="w" x1="1237.11" y1="699.96" x2="1305.31" y2="699.96" xlink:href="#r"/><linearGradient id="x" x1="1237.11" y1="806.08" x2="1305.31" y2="806.08" xlink:href="#r"/><linearGradient id="y" x1="1868.46" y1="426.76" x2="1868.46" y2="974.75" xlink:href="#Bk"><stop offset="0" stop-color="#6aa6ed"/><stop offset=".32" stop-color="#6aa1ed"/><stop offset=".68" stop-color="#6b94ed"/><stop offset="1" stop-color="#6c81ed"/></linearGradient><linearGradient id="z" x1="1861.28" y1="469.77" x2="1861.28" y2="904.07" xlink:href="#r"/><linearGradient id="AA" x1="1366.97" y1="1040.27" x2="2074.29" y2="1040.27" xlink:href="#y"/><linearGradient id="AB" x1="443.37" y1="327.69" x2="634.56" y2="278.6" xlink:href="#r"/><linearGradient id="AC" x1="1582.03" y1="380.8" x2="1345.59" y2="320.09" xlink:href="#r"/><linearGradient id="AD" x1="818.2" y1="1089.98" x2="821.34" y2="894.45" xlink:href="#p"/><linearGradient id="AE" x1="456.28" y1="1046.64" x2="590.22" y2="730.75" xlink:href="#p"/><linearGradient id="AF" x1="882.32" y1="857.79" x2="826.18" y2="761.88" xlink:href="#D"/><linearGradient id="AG" x1="430.41" y1="691.13" x2="1032.35" y2="691.13" xlink:href="#D"/><linearGradient id="AH" x1="439.9" y1="921.27" x2="545.92" y2="795.05" xlink:href="#C"/><linearGradient id="AI" x1="772.82" y1="587.51" x2="767.67" y2="575.39" xlink:href="#Bk"><stop offset="0" stop-color="#6a85ed"/><stop offset=".28" stop-color="#6680ed"/><stop offset=".6" stop-color="#5c73ed"/><stop offset=".93" stop-color="#4b5ced"/><stop offset="1" stop-color="#4757ed"/></linearGradient><linearGradient id="AJ" x1="764.15" y1="564.4" x2="789.66" y2="564.4" xlink:href="#Bk"><stop offset="0" stop-color="#9abaed"/><stop offset=".37" stop-color="#95b9ed"/><stop offset=".79" stop-color="#88b4ed"/><stop offset="1" stop-color="#7eb1ed"/></linearGradient><linearGradient id="AK" x1="755.8" y1="583.91" x2="755.8" y2="566.76" xlink:href="#y"/><linearGradient id="AL" x1="831.8" y1="553.48" x2="826.65" y2="541.36" xlink:href="#AI"/><linearGradient id="AM" x1="808.39" y1="538.88" x2="833.9" y2="538.88" xlink:href="#AJ"/><linearGradient id="AN" x1="814.78" y1="549.88" x2="814.78" y2="532.73" xlink:href="#y"/><linearGradient id="AO" x1="678.35" y1="782.22" x2="678.35" y2="604.05" xlink:href="#y"/><linearGradient id="AP" x1="788.08" y1="699.94" x2="805.8" y2="699.94" xlink:href="#AJ"/><linearGradient id="AQ" x1="777.29" y1="693.69" x2="795.01" y2="693.69" xlink:href="#AJ"/><linearGradient id="AR" x1="766.49" y1="687.44" x2="784.21" y2="687.44" xlink:href="#AJ"/><linearGradient id="AS" x1="755.7" y1="681.19" x2="773.42" y2="681.19" xlink:href="#AJ"/><linearGradient id="AT" x1="744.9" y1="674.94" x2="762.62" y2="674.94" xlink:href="#AJ"/><linearGradient id="AU" x1="776.55" y1="706.7" x2="794.27" y2="706.7" xlink:href="#AJ"/><linearGradient id="AV" x1="765.76" y1="700.45" x2="783.48" y2="700.45" xlink:href="#AJ"/><linearGradient id="AW" x1="754.96" y1="694.2" x2="772.68" y2="694.2" xlink:href="#AJ"/><linearGradient id="AX" x1="744.17" y1="687.95" x2="761.89" y2="687.95" xlink:href="#AJ"/><linearGradient id="AY" x1="733.37" y1="681.7" x2="751.09" y2="681.7" xlink:href="#AJ"/><linearGradient id="AZ" x1="774.09" y1="595.73" x2="774.09" y2="615.99" xlink:href="#AI"/><linearGradient id="Aa" x1="769.2" y1="597.38" x2="778.98" y2="597.38" xlink:href="#AJ"/><linearGradient id="Ab" x1="760.69" y1="588" x2="760.69" y2="608.27" xlink:href="#AI"/><linearGradient id="Ac" x1="755.8" y1="589.65" x2="765.58" y2="589.65" xlink:href="#AJ"/><linearGradient id="Ad" x1="747.29" y1="580.27" x2="747.29" y2="600.54" xlink:href="#AI"/><linearGradient id="Ae" x1="733.9" y1="572.54" x2="733.9" y2="592.81" xlink:href="#AI"/><linearGradient id="Af" x1="729.01" y1="574.2" x2="738.79" y2="574.2" xlink:href="#AJ"/><linearGradient id="Ag" x1="548.37" y1="716.94" x2="543.22" y2="704.82" xlink:href="#AI"/><linearGradient id="Ah" x1="814.78" y1="549.88" x2="814.78" y2="532.74" xlink:href="#y"/><linearGradient id="Ai" x1="592.6" y1="691.42" x2="587.46" y2="679.3" xlink:href="#AI"/><linearGradient id="Aj" x1="534.9" y1="733.67" x2="534.9" y2="753.94" xlink:href="#AI"/><linearGradient id="Ak" x1="755.81" y1="589.65" x2="765.59" y2="589.65" xlink:href="#AJ"/><linearGradient id="Al" x1="521.5" y1="725.94" x2="521.5" y2="746.21" xlink:href="#AI"/><linearGradient id="Am" x1="508.1" y1="718.21" x2="508.1" y2="738.48" xlink:href="#AI"/><linearGradient id="An" x1="494.7" y1="710.49" x2="494.7" y2="730.75" xlink:href="#AI"/><linearGradient id="Ao" x1="1494.53" y1="1092.08" x2="696.26" y2="1092.08" xlink:href="#r"/><linearGradient id="Ap" x1="557.07" y1="1138.42" x2="557.07" y2="1081.74" xlink:href="#y"/><linearGradient id="Aq" x1="619.91" y1="1231.95" x2="554.72" y2="1073.8" xlink:href="#p"/><linearGradient id="Ar" x1="608.04" y1="961.24" x2="685.36" y2="1046.93" xlink:href="#Bk"><stop offset="0" stop-color="#42e296"/><stop offset=".28" stop-color="#41db9b"/><stop offset=".68" stop-color="#3ec7a8"/><stop offset="1" stop-color="#3bb3b6"/></linearGradient><linearGradient id="As" x1="675.1" y1="1205.92" x2="675.1" y2="1148.5" xlink:href="#y"/><linearGradient id="At" x1="738.77" y1="1300.68" x2="672.72" y2="1140.46" xlink:href="#p"/><linearGradient id="Au" x1="726.74" y1="1026.42" x2="805.08" y2="1113.23" xlink:href="#Ar"/><linearGradient id="Av" x1="791.77" y1="1271.39" x2="791.77" y2="1214.72" xlink:href="#y"/><linearGradient id="Aw" x1="854.61" y1="1364.92" x2="789.42" y2="1206.78" xlink:href="#p"/><linearGradient id="Ax" x1="842.74" y1="1094.21" x2="920.06" y2="1179.9" xlink:href="#Ar"/><path id="Ay" d="M768.39 598.93v49.22l-62.75-36.12v-49.21l62.75 36.11z"/><path id="Az" d="M705.64 562.82l62.75 36.11 63.09-36.4-62.76-36.11-63.08 36.4z"/><path id="BA" d="M768.39 562.67v26.84l-62.75-36.12v-26.83l62.75 36.11z"/><path id="BB" d="M768.39 562.64v26.84l63.09-36.41v-26.84l-63.09 36.41z"/><path id="BC" d="M804.86 598.07l-8.1 4.66v-10.52l8.1-4.68v10.54z"/><path id="BD" d="M705.64 467.52l62.75 36.12 63.09-36.41-62.76-36.11-63.08 36.4z"/><path id="BE" d="M768.39 467.38v26.83l-62.75-36.11v-26.84l62.75 36.12z"/><path id="BF" d="M331.83 778.51l62.75 36.12 63.08-36.41-62.75-36.11-63.08 36.4z"/><path id="BG" d="M394.58 778.33v26.84l63.08-36.41v-26.84l-63.08 36.41z"/><path id="BH" d="M331.83 683.22l62.75 36.11 63.08-36.41-62.75-36.11-63.08 36.41z"/><path id="BI" d="M1285.23 435.46l-108.53 62.46-109.09-62.97 108.52-62.45 109.1 62.96z"/><path id="BJ" d="M1114.7 571.64c17.74 9.51 32.75 32.63 34.93 53 .13 1.24.22 2.48.25 3.7.61 21.25-14.16 30.29-33 20.19s-34.57-35.49-35.18-56.74v-3.54c1.13-18.64 15.3-26.12 33-16.61z"/><path id="BK" d="M1677.37 795.95l-19.98-11.53-19.88 11.44 19.98 11.53 19.88-11.44z"/><path id="BL" d="M1725.66 846.81l19.88-11.44-19.98-11.54-19.89 11.44 19.99 11.54z"/><path id="BM" d="M1748.38 859.95l19.88-11.44-19.98-11.54-19.88 11.44 19.98 11.54z"/><path id="BN" d="M1771.11 873.09l19.88-11.45-19.99-11.53-19.88 11.44 19.99 11.54z"/><path id="BO" d="M1816.55 899.36l19.88-11.44-19.98-11.53-19.88 11.44 19.98 11.53z"/><path id="BP" d="M1649.82 841.43l19.99 11.54 19.88-11.45-19.99-11.53-19.88 11.44z"/><path id="BQ" d="M1672.54 854.57l19.99 11.53 19.88-11.44-19.99-11.53-19.88 11.44z"/><path id="BR" d="M1695.27 867.71l19.98 11.53 19.88-11.44-19.98-11.53-19.88 11.44z"/><path id="BS" d="M1717.99 880.85l19.98 11.53 19.89-11.44-19.99-11.53-19.88 11.44z"/><path id="BT" d="M1786.16 920.26l19.98 11.54 19.88-11.44-19.98-11.54-19.88 11.44z"/><path id="BU" d="M1939.64 986.05l-19.99-11.54-19.88 11.45 19.99 11.53 19.88-11.44z"/><path id="BV" d="M1962.36 999.19l-19.98-11.54-19.89 11.44 19.99 11.54 19.88-11.44z"/><path id="BW" d="M1624.68 856.03l19.99 11.53 19.88-11.44-19.98-11.53-19.89 11.44z"/><path id="BX" d="M1869.06 974.37l-19.99-11.53-19.88 11.44 19.98 11.53 19.89-11.44z"/><path id="BY" d="M1707.59 910.14l-19.99-11.54-19.88 11.44 19.98 11.54 19.89-11.44z"/><path id="BZ" d="M1753.03 936.41l-19.98-11.53-19.89 11.44 19.99 11.54 19.88-11.45z"/><path id="Ba" d="M1798.48 962.69l-19.99-11.53-19.88 11.44 19.99 11.53 19.88-11.44z"/><path id="Bb" d="M1843.92 988.97l-19.98-11.54-19.88 11.45 19.98 11.53 19.88-11.44z"/><path id="Bc" d="M1705.17 937.87l-19.98-11.53-19.88 11.44 19.98 11.54 19.88-11.45z"/><path id="Bd" d="M983.9 588.41l-132 75.96-132.68-76.58 131.99-75.96 132.69 76.58z"/><path id="Be" d="M762.2 580.26v1.75l12.72-7.32v-1.75l-12.72 7.32z"/><path id="Bf" d="M762.2 580.26v1.75l-12.79-7.39v-1.74l12.79 7.38z"/><path id="Bg" d="M833.9 538.91l-12.72 7.32-12.79-7.38 12.72-7.32 12.79 7.38z"/><path id="Bh" d="M821.18 546.23v1.76l-12.79-7.39v-1.75l12.79 7.38z"/><path id="Bi" d="M769.2 597.38c0 1.24 2.19 2.24 4.89 2.24s4.89-1 4.89-2.24-2.19-2.25-4.89-2.25-4.89 1.01-4.89 2.25z"/><path id="Bj" d="M755.8 589.65c0 1.24 2.19 2.25 4.89 2.25s4.89-1 4.89-2.25-2.19-2.24-4.89-2.24-4.89 1-4.89 2.24z"/><linearGradient id="Bk" gradientUnits="userSpaceOnUse"/></defs><g class="A"><g><use xlink:href="#Ay" fill="url(#A)"/><use xlink:href="#Az" class="CZ"/><path d="M768.39 598.89v49.22l63.09-36.4v-49.22l-63.09 36.4z" fill="url(#B)"/><use xlink:href="#BA" fill="url(#C)"/><use xlink:href="#Az" y="-36.26" fill="url(#D)"/><use xlink:href="#BB" fill="url(#E)"/><path d="M818.01 590.48l-8.11 4.65v-10.51l8.11-4.69v10.55z" fill="url(#F)"/><use xlink:href="#BC" fill="url(#G)"/><use xlink:href="#BC" x="-13.16" y="7.6" fill="url(#G)"/><path d="M768.39 503.64v49.21l-62.75-36.11v-49.22l62.75 36.12z" fill="url(#H)"/><use xlink:href="#BD" class="CZ"/><path d="M768.39 503.6v49.22l63.09-36.41v-49.22l-63.09 36.41z" fill="url(#I)"/><use xlink:href="#BE" fill="url(#J)"/><use xlink:href="#BD" y="-36.26" fill="url(#K)"/><use xlink:href="#BB" y="-95.3" fill="url(#L)"/><path d="M818.01 495.18l-8.11 4.65v-10.51l8.11-4.68v10.54z" fill="url(#M)"/><path d="M804.86 502.77l-8.1 4.66v-10.51l8.1-4.69v10.54z" fill="url(#N)"/><path d="M791.7 510.38l-8.1 4.65v-10.52l8.1-4.68v10.55z" fill="url(#O)"/><use xlink:href="#Ay" y="-190.59" fill="url(#P)"/><use xlink:href="#Az" y="-190.59" class="CZ"/><path d="M768.39 408.31v49.21l63.09-36.4V371.9l-63.09 36.41z" fill="url(#Q)"/><use xlink:href="#BA" y="-190.59" fill="url(#R)"/><use xlink:href="#Az" y="-226.85" fill="url(#S)"/><path d="M768.39 372.05v26.83l63.09-36.4v-26.84l-63.09 36.41z" fill="url(#T)"/><path d="M818.01 399.88l-8.11 4.66v-10.52l8.11-4.68v10.54z" fill="url(#U)"/><path d="M804.86 407.48l-8.1 4.65v-10.51l8.1-4.68v10.54z" fill="url(#V)"/><use xlink:href="#BC" x="-13.16" y="-182.99" fill="url(#G)"/><path class="a Cb Cd" d="M514.52 759.72c0 17.43 34.88 31.57 77.91 31.57s77.9-14.14 77.9-31.57-34.88-31.56-77.9-31.56-77.91 14.13-77.91 31.56z"/><path d="M569.07,438.69s-23.11,9.15-12.94,13.73,22.63-2.29,22.63-2.29Z" class="CU"/><path d="M571.48 468.4c4.87-2 5.28-3.53 5.28-3.53a56 56 0 0 0 1.57-10.09l22.2 4.71a26.76 26.76 0 0 0-.3 7.29 6 6 0 0 0 1.7 0l3.63 4.18 1.33 10-17.36 7.54-14.15-7.43s-8.76-10.67-3.9-12.67z" class="Ce"/><g class="CW"><path d="M695.92 424.57a6.14 6.14 0 0 1-1.43 1.75c-.7.47-.64-.37-.52-1 .36-1.76 1.14-3.41 1.44-5.2.09-.53 0-1.59-.81-1.09-2.18 1.45-3.32 4.5-4.32 6.8a38.74 38.74 0 0 0-1.78 5l-.67 2.74c-.11.53-.07 1.73-.47 2.14a5.29 5.29 0 0 1-.54.52l7.93 7.84a23.7 23.7 0 0 0 4-2.58c3-2.33 4-3.82 5.6-7.15 1-2 3-3.39 4.72-4.78s2.73-.92 4.34-2.85-2.34-7.16-7.15-7.91c-2.49-.39-5 .92-6.9 2.37a19.28 19.28 0 0 0-2.81 2.61 7.35 7.35 0 0 0-.63.79zm-237.33 41.91a6.26 6.26 0 0 0 2.15.69c.85 0 .34-.67-.11-1.13-1.27-1.28-2.82-2.24-4.05-3.58-.36-.39-.82-1.35.09-1.35 2.61 0 5.23 2 7.33 3.34a40 40 0 0 1 4.23 3.22l2.06 1.93c.38.39 1 1.41 1.56 1.54a6.26 6.26 0 0 0 .73.14l-2.36 10.9a23.92 23.92 0 0 1-4.71 0c-3.82-.29-5.44-1-8.6-2.93-1.89-1.14-4.37-1.19-6.57-1.42s-2.79.72-5.19 0-1.95-7.28 1.67-10.53c1.87-1.69 4.67-1.95 7.08-1.78a17.93 17.93 0 0 1 3.77.65 8 8 0 0 1 .92.31z"/></g><path d="M620.37 731.62s.39 9.26 5.13 11.73 17 11.22 14.37 15.14-11.87 7.51-21.51 2.15-15.26-10.13-18.14-12 0-20.3.59-26.07 19.56 9.05 19.56 9.05z" fill="#ca5a50"/><path d="M617.74,579s5.19,75.34,6.19,155.22c0,0-10.48,5.16-27.46,1.83,0,0,0-87.48-6.82-131l-7.24-15.55,3-9.94,30-7.78Z" fill="#9c5984"/><path d="M579.17 742s.42 10.07 5.58 12.76 18.56 12.24 15.65 16.5-12.89 8.18-23.43 2.35-16.61-11-19.75-13.05 0-16.31.65-22.59 21.3 4.03 21.3 4.03z" fill="#ca5a50"/><g fill="#9c5984"><path d="M556.57 576.93l.85 91.09c0 10.76-3.59 73.54-3.59 73.54s6.1 7 28.13 4.3l4.44-69.32 6-74.56-2-14.31zm27.33 4.98s13.42 2.46 25.81-3.37l-1.71-6.72-24.1 3.18z"/></g><path d="M574.07,465.77l2.1,1.14c25.7,13.24,24.06-.13,24.06-.13h1.7l5.16,7.1,4.24-.87-3.94,99.86c-13.45,6-23.91,3.58-23.91,3.58l-7.4-26.9L569.43,473Z" class="CU"/><g class="Cf"><path d="M602 488.63a904.11 904.11 0 0 1 3.3 102.48s11.86-3.48 16-6.77c0 0-.79-67.71-7.21-118.33l-13.9.77.47 5.42zM544.47 476s6.51-1.65 28.19-9.52c0 0 16.53 27.27 12.46 127.69 0 0-28.29-3.92-32.47-7.2 0-.04 2.28-85.75-8.18-110.97z"/></g><path d="M572 451.31s4.26 16.59 21 15.78c19.35-.93 19.85-24.31 17.08-35.14-2.59-10.13-16.23-21.66-29.4-13.26-9.9 6.31-13 17.42-8.68 32.62z" class="CW"/><path d="M686.71,432.74c-43.83,34.61-86.48,34-86.48,34l11.06,21.77c54.2-6.11,85.08-43.27,85.08-43.27Z" class="Cf"/><g class="Ck"><path d="M569.43 467.9a25.58 25.58 0 0 1 7.45-3.48s4.24 14.43 3.36 24.13l-14.1 6.88zm34.52-1.89l-3.77-.24.05 1.01 1.47 17.99 9.63 1.99-7.38-20.75zm7.21-27.07s-29.16 3.53-41.08 5.83c0 0-7.31-21.84 16.32-30.74 0-.03 25.14-4.85 24.76 24.91z"/></g><path d="M544.47 476s-32.71 1.56-73.13-7.35c0 0-4.83 5.16-2.8 16.43 0 0 36.43 20.57 82.95 13.7 0-.04-.32-20.43-7.02-22.78z" class="Cf"/><path d="M394.58 814.63v49.21l-62.75-36.11v-49.22l62.75 36.12z" fill="url(#W)"/><use xlink:href="#BF" class="CZ"/><path d="M394.58 814.59v49.21l63.08-36.4v-49.22l-63.08 36.41z" fill="url(#X)"/><use xlink:href="#BE" x="-373.81" y="310.99" fill="url(#Y)"/><use xlink:href="#BF" y="-36.26" fill="url(#Z)"/><use xlink:href="#BG" fill="url(#a)"/><path d="M444.2 806.17l-8.11 4.65v-10.51l8.11-4.68v10.54z" fill="url(#b)"/><path d="M431.05 813.76l-8.1 4.66V807.9l8.1-4.68v10.54z" fill="url(#c)"/><path d="M417.89 821.36l-8.1 4.66V815.5l8.1-4.68v10.54z" fill="url(#d)"/><path d="M394.58 719.33v49.21l-62.75-36.11v-49.21l62.75 36.11z" fill="url(#e)"/><use xlink:href="#BH" class="CZ"/><path d="M394.58 719.29v49.22l63.08-36.41v-49.22l-63.08 36.41z" fill="url(#f)"/><path d="M394.58 683.07v26.83l-62.75-36.11v-26.83l62.75 36.11z" fill="url(#g)"/><use xlink:href="#BH" y="-36.26" fill="url(#h)"/><use xlink:href="#BG" y="-95.3" fill="url(#a)"/><path d="M444.2 710.87l-8.11 4.66v-10.52l8.11-4.68v10.54z" fill="url(#i)"/><path d="M431.05 718.47l-8.1 4.65v-10.51l8.1-4.69v10.55z" fill="url(#j)"/><path d="M417.89 726.07l-8.1 4.65V720.2l8.1-4.67v10.54z" fill="url(#k)"/><use xlink:href="#Ay" x="-373.81" y="25.1" fill="url(#l)"/><path d="M331.83 587.92l62.75 36.11 63.08-36.4-62.75-36.11-63.08 36.4z" class="CZ"/><path d="M394.58 624v49.22l63.08-36.41v-49.22L394.58 624z" fill="url(#m)"/><use xlink:href="#BE" x="-373.81" y="120.4" fill="url(#Y)"/><use xlink:href="#BF" y="-226.85" fill="url(#Z)"/><use xlink:href="#BG" y="-190.59" fill="url(#n)"/><path d="M444.2 615.58l-8.11 4.65v-10.51l8.11-4.69v10.55z" fill="url(#o)"/><use xlink:href="#BC" x="-373.81" y="25.1" fill="url(#G)"/><use xlink:href="#BC" x="-386.97" y="32.7" fill="url(#G)"/><path d="M1176.7 497.92v313.17l108.53-62.46V435.46l-108.53 62.46z" fill="url(#p)"/><use xlink:href="#BI" class="Cg"/><path d="M1176.7 497.85v313.18l-109.09-62.97V434.88l109.09 62.97z" fill="url(#q)"/><path d="M1151.21 528.89c0-1-.1-2.07-.21-3.11-1.83-17.17-14.45-36.61-29.37-44.61-7.66-4.1-14.52-4.43-19.51-1.66h0l-.39.23-.14.08-6.57 3.86 4.68 6.69c0 .48-.09 1-.12 1.46-.06 1-.07 1.95 0 3 .51 17.87 13.76 39.23 29.58 47.72a32 32 0 0 0 6.47 2.64l2.22 5.35 4.89-2.81c5.44-2.9 8.74-9.45 8.47-18.84z" class="CV"/><path d="M1115.93 484.44c14.92 8 27.55 27.44 29.38 44.6q.17 1.58.21 3.12c.51 17.86-11.91 25.47-27.74 17s-29.07-29.85-29.58-47.72v-3c.93-15.7 12.8-22 27.73-14z" class="CT"/><path d="M1116.06 488.75c12.93 6.93 23.87 23.78 25.46 38.66a35.7 35.7 0 0 1 .19 2.7c.44 15.49-10.33 22.08-24 14.72S1092.46 519 1092 503.47v-2.59c.82-13.61 11.13-19.07 24.06-12.13z" fill="url(#r)"/><path d="M1092.05 500.86c.64-11.28 7.82-16.95 17.62-14.63-7.55.06-12.79 5.59-13.33 15.14 0 .84-.06 1.7 0 2.59.45 15.49 11.93 34 25.65 41.36a26.43 26.43 0 0 0 6.41 2.5 22.52 22.52 0 0 1-10.7-3c-13.72-7.36-25.2-25.88-25.65-41.37a22.37 22.37 0 0 1 0-2.59z" class="CV"/><path d="M1119.07 504.13c-6-3.19-10.62-.33-10.42 6.38s5.17 14.76 11.12 18 10.62.33 10.43-6.39-5.2-14.8-11.13-17.99z" class="Ca"/><path d="M1162.92 626.71c0-1.42-.14-2.84-.29-4.28-2.51-23.54-19.82-50.2-40.29-61.18-10.51-5.63-19.91-6.08-26.75-2.28h0l-.54.31-.19.12-9 5.29 6.42 9.17a33 33 0 0 0-.16 2 45.93 45.93 0 0 0-.06 4.09c.7 24.5 18.87 53.81 40.58 65.45a43.75 43.75 0 0 0 8.86 3.63l3 7.33 6.71-3.86c7.55-3.93 12.08-12.92 11.71-25.79z" class="CV"/><path d="M1114.53 565.74c20.47 11 37.78 37.63 40.29 61.17.15 1.44.25 2.87.29 4.28.7 24.5-16.33 34.93-38 23.29s-39.88-40.94-40.58-65.45v-4.09c1.24-21.54 17.54-30.17 38-19.2z" class="CT"/><use xlink:href="#BJ" fill="url(#s)"/><path d="M1081.77 588.25c.87-15.47 10.73-23.25 24.18-20.06-10.36.08-17.55 7.66-18.3 20.77-.06 1.14-.08 2.32 0 3.54.61 21.25 16.36 46.65 35.18 56.74a36.33 36.33 0 0 0 8.79 3.43c-4.41 0-9.38-1.29-14.68-4.13-18.82-10.09-34.57-35.5-35.18-56.74-.07-1.23-.06-2.41.01-3.55z" class="CV"/><path d="M1118.84 592.74c-8.16-4.38-14.57-.46-14.31 8.76s7.1 20.23 15.26 24.61 14.57.46 14.31-8.76-7.1-20.23-15.26-24.61z" class="Ca"/><path d="M1162.92 732.82c0-1.41-.14-2.83-.29-4.27-2.51-23.54-19.82-50.2-40.29-61.18-10.51-5.63-19.91-6.08-26.75-2.28h0l-.54.31-.19.12-9 5.29 6.42 9.17a33 33 0 0 0-.16 2q-.12 2-.06 4.08c.7 24.51 18.87 53.81 40.58 65.45a43.18 43.18 0 0 0 8.86 3.63l3 7.34 6.71-3.86c7.55-3.93 12.08-12.92 11.71-25.8z" class="CV"/><path d="M1114.53 671.86c20.47 11 37.78 37.63 40.29 61.17a56.7 56.7 0 0 1 .29 4.27c.7 24.51-16.33 34.94-38 23.3s-39.88-41-40.58-65.45v-4.09c1.24-21.54 17.54-30.18 38-19.2z" class="CT"/><use xlink:href="#BJ" y="106.12" fill="url(#s)"/><path d="M1081.77 694.37c.87-15.47 10.73-23.25 24.18-20.06-10.36.07-17.55 7.66-18.3 20.77-.06 1.14-.08 2.32 0 3.54.61 21.25 16.36 46.65 35.18 56.74a36.33 36.33 0 0 0 8.79 3.43c-4.41 0-9.38-1.29-14.68-4.13-18.82-10.09-34.57-35.5-35.18-56.75-.07-1.22-.06-2.4.01-3.54z" class="CV"/><path d="M1118.84 698.86c-8.16-4.38-14.57-.46-14.31 8.76s7.1 20.23 15.26 24.61 14.57.45 14.31-8.77-7.1-20.22-15.26-24.6z" class="Ca"/><path d="M1332.11 587.77v313.18l108.53-62.46V525.31l-108.53 62.46z" fill="url(#t)"/><use xlink:href="#BI" x="155.41" y="89.85" class="Cg"/><path d="M1332.11 587.71v313.17l-109.09-62.97V524.74l109.09 62.97z" fill="url(#u)"/><path d="M1306.62 618.74c0-1-.1-2.06-.21-3.11C1304.58 598.47 1292 579 1277 571c-7.67-4.11-14.52-4.44-19.51-1.67h0l-.39.23-.15.09-6.56 3.85 4.67 6.69c0 .48-.08 1-.11 1.46-.06 1-.07 2 0 3 .51 17.87 13.76 39.23 29.58 47.72A32.55 32.55 0 0 0 1291 635l2.23 5.34 4.88-2.81c5.47-2.84 8.78-9.4 8.51-18.79z" class="CV"/><path d="M1271.34 574.3c14.92 8 27.54 27.43 29.37 44.6.12 1.05.19 2.08.22 3.11.51 17.87-11.91 25.47-27.74 17s-29.07-29.85-29.58-47.71v-3c.93-15.71 12.82-22 27.73-14z" class="CT"/><path d="M1271.47 578.6c12.93 6.94 23.87 23.79 25.46 38.67a30.85 30.85 0 0 1 .18 2.7c.45 15.49-10.32 22.08-24 14.72s-25.2-25.88-25.65-41.37v-2.58c.77-13.62 11.08-19.07 24.01-12.14z" fill="url(#v)"/><path d="M1247.45 590.71c.64-11.28 7.83-17 17.63-14.62-7.55 0-12.79 5.58-13.33 15.14 0 .83-.06 1.69 0 2.58.45 15.49 11.93 34 25.65 41.37a26.63 26.63 0 0 0 6.41 2.49 22.52 22.52 0 0 1-10.7-3c-13.72-7.35-25.21-25.87-25.65-41.37q-.07-1.3-.01-2.59z" class="CV"/><path d="M1274.48 594c-6-3.19-10.62-.33-10.43 6.39s5.18 14.75 11.13 17.94 10.62.33 10.42-6.39-5.17-14.77-11.12-17.94z" class="Ca"/><path d="M1318.33 716.56c0-1.41-.14-2.84-.29-4.28-2.51-23.54-19.83-50.2-40.29-61.17-10.51-5.64-19.92-6.09-26.75-2.28h0l-.54.32-.19.11-9 5.29 6.41 9.18-.16 2c-.07 1.32-.09 2.68 0 4.09.7 24.51 18.87 53.81 40.58 65.45a43.75 43.75 0 0 0 8.86 3.63l3 7.34 6.7-3.86c7.51-3.96 12.04-12.94 11.67-25.82z" class="CV"/><path d="M1269.94 655.59c20.46 11 37.78 37.63 40.29 61.18a56.7 56.7 0 0 1 .29 4.27c.7 24.51-16.33 34.93-38 23.29s-39.88-40.94-40.58-65.45v-4.09c1.24-21.54 17.54-30.17 38-19.2z" class="CT"/><path d="M1270.11 661.49c17.74 9.52 32.75 32.63 34.93 53a52.24 52.24 0 0 1 .25 3.7c.61 21.25-14.16 30.29-33 20.2s-34.57-35.5-35.18-56.74v-3.55c1.13-18.63 15.26-26.1 33-16.61z" fill="url(#w)"/><path d="M1237.17 678.11c.88-15.48 10.74-23.25 24.18-20.06-10.35.07-17.54 7.65-18.29 20.76-.06 1.14-.08 2.32 0 3.55.61 21.24 16.37 46.65 35.19 56.74a36.22 36.22 0 0 0 8.78 3.42c-4.4 0-9.37-1.29-14.67-4.13-18.82-10.09-34.57-35.49-35.18-56.74-.09-1.22-.07-2.4-.01-3.54z" class="CV"/><path d="M1274.25 682.59c-8.17-4.37-14.57-.45-14.31 8.76s7.1 20.24 15.26 24.61 14.56.46 14.3-8.76-7.09-20.2-15.25-24.61z" class="Ca"/><path d="M1318.33 822.68c0-1.41-.14-2.84-.29-4.28-2.51-23.54-19.83-50.2-40.29-61.17-10.51-5.64-19.92-6.09-26.75-2.29h0l-.54.32-.19.11-9 5.29 6.41 9.18-.16 2c-.07 1.32-.09 2.68 0 4.09.7 24.51 18.87 53.81 40.58 65.45a43.75 43.75 0 0 0 8.86 3.63l3 7.33 6.7-3.85c7.51-3.95 12.04-12.94 11.67-25.81z" class="CV"/><path d="M1269.94 761.71c20.46 11 37.78 37.63 40.29 61.18a56.35 56.35 0 0 1 .29 4.27c.7 24.5-16.33 34.93-38 23.29s-39.92-40.94-40.62-65.45v-4.09c1.28-21.54 17.58-30.17 38.04-19.2z" class="CT"/><path d="M1270.11 767.61c17.74 9.52 32.75 32.63 34.93 53a52.24 52.24 0 0 1 .25 3.7c.61 21.25-14.16 30.29-33 20.19s-34.57-35.49-35.18-56.74v-3.54c1.13-18.63 15.26-26.12 33-16.61z" fill="url(#x)"/><path d="M1237.17 784.22c.88-15.47 10.74-23.25 24.18-20.05-10.35.07-17.54 7.65-18.29 20.76-.06 1.14-.08 2.32 0 3.55.61 21.24 16.37 46.64 35.19 56.74a36.63 36.63 0 0 0 8.78 3.42c-4.4 0-9.37-1.29-14.67-4.13-18.82-10.09-34.57-35.49-35.18-56.74-.09-1.22-.07-2.4-.01-3.55z" class="CV"/><path d="M1274.25 788.71c-8.17-4.37-14.57-.45-14.31 8.76s7.1 20.23 15.26 24.61 14.56.46 14.3-8.76-7.09-20.23-15.25-24.61z" class="Ca"/><path d="M2077.21 646.35L1663.58 407a8.37 8.37 0 0 0-8.33-.06h0-.09 0l-9.93 5.77 11.64 41.65v273.97a27.94 27.94 0 0 0 14 24.19l398.52 230.6 4.63 12.51 10-5.83h0a15.06 15.06 0 0 0 7.73-13.23V671.5a29.06 29.06 0 0 0-14.54-25.15z" fill="url(#y)"/><path d="M2081.68 677.34V982.4a15.2 15.2 0 0 1-22.79 13.17l-404-233.79a27.91 27.91 0 0 1-14-24.18V420.18a8.44 8.44 0 0 1 12.65-7.31l413.63 239.31a29 29 0 0 1 14.51 25.16z" class="Ch"/><path d="M2081.68 685.36v291.52l-440.8-255.27V430.09l440.8 255.27z" fill="url(#z)"/><path d="M1371 899.41l247-143.57c5.33-3.1 14-3.1 19.41 0l432.81 249.88c5.37 3.1 5.39 8.15.07 11.24l-247.06 143.58c-5.33 3.09-14 3.09-19.41 0L1371 910.66c-5.33-3.1-5.36-8.15 0-11.25z" class="Cg"/><path d="M2070.32 1017l-247.06 143.58h0c-5.33 3.09-14 3.09-19.41 0L1371 910.66c-2.7-1.56-4-3.62-4-5.67v12.69c0 2.05 1.35 4.1 4 5.66l432.81 249.89c5.37 3.09 14.09 3.09 19.42 0h0l247.06-143.58c2.64-1.54 4-3.56 4-5.58v-12.69c0 2.02-1.29 4.05-3.97 5.62z" fill="url(#AA)"/><g fill="#8dbff2"><path d="M1708.52 1013.63l-99.33-57.45a5.72 5.72 0 0 0-5.16 0l-48.33 28.08c-1.41.83-1.4 2.17 0 3l99.33 57.45a5.66 5.66 0 0 0 5.16 0l48.33-28.08c1.48-.83 1.48-2.18 0-3z"/><use xlink:href="#BK"/><path d="M1680.21 820.53l19.89-11.44-19.99-11.53-19.88 11.44 19.98 11.53zm22.73 13.14l19.88-11.44-19.99-11.53-19.88 11.43 19.99 11.54z"/><use xlink:href="#BL"/><use xlink:href="#BM"/><use xlink:href="#BN"/><path d="M1793.83 886.22l19.88-11.44-19.99-11.53-19.88 11.44 19.99 11.53z"/><use xlink:href="#BO"/><use xlink:href="#BO" x="22.72" y="13.14"/><path d="M1862 925.64l19.88-11.44-19.99-11.54-19.88 11.45 19.99 11.53z"/><use xlink:href="#BL" x="159.06" y="91.97"/><use xlink:href="#BM" x="159.06" y="91.97"/><path d="M1930.16 965.06l19.89-11.45-19.99-11.53-19.88 11.44 19.98 11.54z"/><use xlink:href="#BN" x="181.78" y="105.11"/><use xlink:href="#BO" x="159.06" y="91.97"/><path d="M1998.23 981.5l-19.88 11.44 19.98 11.53 19.88-11.44-19.98-11.53zM1627.1 828.29l19.98 11.54 19.88-11.45-42.7-24.67-19.88 11.44 22.73 13.14h-.01z"/><use xlink:href="#BP"/><use xlink:href="#BQ"/><use xlink:href="#BR"/><use xlink:href="#BS"/><path d="M1740.71 893.99l19.99 11.53 19.88-11.44-19.99-11.54-19.88 11.45zm22.72 13.13l19.99 11.54 19.88-11.44-19.98-11.54-19.89 11.44z"/><use xlink:href="#BT"/><use xlink:href="#BS" x="90.89" y="52.55"/><use xlink:href="#BQ" x="159.06" y="91.97"/><use xlink:href="#BR" x="159.06" y="91.97"/><use xlink:href="#BR" x="181.78" y="105.11"/><use xlink:href="#BU"/><use xlink:href="#BV"/><use xlink:href="#BT" x="159.06" y="91.97"/><path d="M1601.96 842.89l19.99 11.53 19.88-11.44-42.71-24.67-19.88 11.44 22.73 13.13-.01.01z"/><use xlink:href="#BW"/><use xlink:href="#BS" x="-70.58" y="-11.68"/><path d="M1670.13 882.31l19.99 11.53L1710 882.4l-19.99-11.53-19.88 11.44zm22.72 13.13l19.99 11.54 19.88-11.44-19.99-11.54-19.88 11.44z"/><use xlink:href="#BT" x="-70.58" y="-11.68"/><path d="M1738.3 921.72l19.98 11.54 19.89-11.44-19.99-11.54-19.88 11.44z"/><use xlink:href="#BP" x="111.2" y="93.43"/><use xlink:href="#BW" x="159.06" y="91.97"/><use xlink:href="#BR" x="111.2" y="93.43"/><use xlink:href="#BX"/><path d="M1914.5 1000.65l-19.98-11.54-19.88 11.44 19.98 11.54 19.88-11.44zm22.73 13.13l-19.99-11.53-19.88 11.44 19.98 11.54 19.89-11.45z"/><use xlink:href="#BP" x="270.26" y="185.4"/><path d="M1576.83 857.49l19.98 11.53 19.88-11.44-42.7-24.67-19.88 11.44 22.73 13.13-.01.01z"/><use xlink:href="#BQ" x="-72.99" y="16.06"/><use xlink:href="#BQ" x="-50.27" y="29.2"/><path d="M1684.86 897l-19.98-11.54L1645 896.9l19.98 11.54 19.88-11.44z"/><use xlink:href="#BY"/><path d="M1730.31 923.27l-19.99-11.53-19.88 11.44 19.99 11.54 19.88-11.45z"/><use xlink:href="#BZ"/><use xlink:href="#BK" x="98.38" y="153.6"/><use xlink:href="#Ba"/><use xlink:href="#BU" x="-118.44" y="-10.22"/><use xlink:href="#Bb"/><path d="M1889.37 1015.25l-22.93-13.08 25.34-14.66-19.99-11.53-19.88 11.43.05.03-25.18 14.57 42.71 24.68 19.88-11.44z"/><use xlink:href="#BZ" x="159.06" y="91.97"/><use xlink:href="#BR" x="199.68" y="173.72"/><use xlink:href="#BX" x="-300.22" y="-115.33"/><use xlink:href="#BQ" x="-120.85" y="17.52"/><use xlink:href="#Bb" x="-229.64" y="-103.65"/><use xlink:href="#BY" x="-70.58" y="-11.68"/><path d="M1659.73 911.6l-19.99-11.54-19.88 11.44 19.99 11.54 19.88-11.44z"/><use xlink:href="#BV" x="-279.91" y="-74.45"/><use xlink:href="#Bc"/><use xlink:href="#Ba" x="-70.58" y="-11.68"/><use xlink:href="#Ba" x="-47.86" y="1.46"/><path d="M1773.34 977.29l-19.98-11.53-19.89 11.44 19.99 11.53 19.88-11.44z"/><use xlink:href="#BY" x="88.48" y="80.29"/><use xlink:href="#BY" x="111.2" y="93.43"/><use xlink:href="#BV" x="-120.85" y="17.52"/><use xlink:href="#Bc" x="159.06" y="91.97"/><use xlink:href="#BX" x="17.9" y="68.61"/><use xlink:href="#BQ" x="197.27" y="201.46"/><path d="M1523.72 862.11l-19.88 11.44 22.73 13.13h-.01l19.98 11.54 19.88-11.44-42.7-24.67zm45.44 26.27l-19.88 11.44 22.73 13.14h-.01l19.99 11.54 19.88-11.44-42.71-24.68zm156.32 90.37h0l-3.99-2.31-18.73-10.83h0l-7.99-4.61-14.74-8.52.01-.01-11.99-6.92-10.75-6.21.02-.01-15.99-9.22-26.72-15.45-19.88 11.44 22.72 13.14h0l4 2.31 18.73 10.83h-.01l8 4.61 14.73 8.52-.01.01 12 6.92 10.74 6.21-.01.01 15.99 9.22 6.75 3.9-.02.01 19.99 11.54 19.88-11.44-22.73-13.14zm25.46 14.74l-19.88 11.44 19.99 11.54 19.88-11.44-19.99-11.54zm22.73 13.14l-19.88 11.44 19.98 11.54 19.88-11.45-19.98-11.53zm22.72 13.14l-19.88 11.44 19.98 11.53 19.89-11.44-19.99-11.53zm22.72 13.14l-19.88 11.44 19.99 11.53 19.88-11.44-19.99-11.53zm22.73 13.14l-19.89 11.44 19.99 11.53 19.88-11.44-19.98-11.53z"/><use xlink:href="#BR" x="149.41" y="202.92"/></g><g class="AZ" fill="#f9ed32"><path d="M1711 715.58l29.17 16.84.04-14.43-29.17-16.85-.04 14.44zm.05-18.77l29.17 16.84.05-14.44-29.18-16.84-.04 14.44zm.06-18.77l29.17 16.84.04-14.44-29.17-16.84-.04 14.44zm.05-18.77l29.17 16.84.04-14.44-29.17-16.84-.04 14.44zm.05-18.77l29.17 16.84.04-14.44-29.17-16.84-.04 14.44zm.06-18.77l29.17 16.84.04-14.44-29.17-16.84-.04 14.44zm.05-18.77l29.17 16.84.04-14.44-29.17-16.84-.04 14.44zm.05-18.77l29.17 16.84.04-14.44-29.17-16.84-.04 14.44zm.05-18.77l29.18 16.84.04-14.44-29.17-16.84-.05 14.44zm38.08 172.39l29.18 16.84.04-14.43-29.17-16.85-.05 14.44zm.06-18.77l29.17 16.84.04-14.44-29.17-16.84-.04 14.44zm.05-18.77l29.17 16.84.04-14.44-29.17-16.84-.04 14.44zm.05-18.77l29.18 16.84.04-14.44-29.18-16.84-.04 14.44zm.06-18.77l29.17 16.84.04-14.44-29.17-16.84-.04 14.44zm38.29 97.31l29.17 16.84.04-14.43-29.17-16.84-.04 14.43zm.05-18.77l29.17 16.84.04-14.44-29.17-16.84-.04 14.44zm.06-18.77l29.17 16.84.04-14.44-29.17-16.84-.04 14.44zm38.39 59.77l29.17 16.84.04-14.44-29.17-16.83-.04 14.43zm.06-18.77l29.16 16.84.04-14.45-29.16-16.83-.04 14.44zm.05-18.77l29.16 16.84.04-14.44-29.16-16.84-.04 14.44zm.05-18.77l29.17 16.84.04-14.44-29.17-16.84-.04 14.44zm.06-18.77l29.16 16.84.04-14.44-29.16-16.84-.04 14.44zm.05-18.77l29.16 16.84.04-14.44-29.16-16.84-.04 14.44zm.05-18.77l29.17 16.84.04-14.44-29.17-16.84-.04 14.44zm38.19 134.85l29.16 16.84.04-14.44-29.16-16.83-.04 14.43zm.05-18.77l29.16 16.84.05-14.44-29.17-16.84-.04 14.44zm.05-18.77l29.17 16.84.04-14.44-29.17-16.84-.04 14.44zm.06-18.77l29.16 16.84.04-14.44-29.16-16.84-.04 14.44zm.05-18.77l29.16 16.84.04-14.44-29.16-16.84-.04 14.44zm38.29 97.31l29.17 16.84.04-14.44-29.17-16.84-.04 14.44zm.05-18.77l29.17 16.84.04-14.44-29.17-16.85-.04 14.45zm.05-18.77l29.17 16.84.04-14.44-29.17-16.85-.04 14.45zm.05-18.77l29.18 16.84.04-14.44-29.18-16.84-.04 14.44zm.06-18.77l29.17 16.84.04-14.44-29.17-16.84-.04 14.44zm.05-18.77l29.17 16.84.04-14.44-29.17-16.84-.04 14.44zm.05-18.77l29.18 16.84.04-14.44-29.17-16.84-.05 14.44zm.06-18.77l29.17 16.84.04-14.44-29.17-16.84-.04 14.44zm38.13 153.62l29.17 16.84.04-14.43-29.17-16.85-.04 14.44zm.05-18.77l29.17 16.84.05-14.44-29.18-16.84-.04 14.44zm.06-18.77l29.17 16.84.04-14.44-29.17-16.84-.04 14.44zm.05-18.77l29.17 16.84.04-14.44-29.17-16.84-.04 14.44zm.05-18.77l29.17 16.84.04-14.44-29.17-16.84-.04 14.44zm.06-18.77l29.17 16.84.04-14.44-29.17-16.84-.04 14.44zm.05-18.77l29.17 16.84.04-14.44-29.17-16.84-.04 14.44zm.05-18.77l29.17 16.84.04-14.44-29.17-16.84-.04 14.44zm.05-18.77l29.18 16.84.04-14.44-29.18-16.84-.04 14.44zm38.08 172.39l29.18 16.84.04-14.43-29.17-16.85-.05 14.44zm.06-18.77l29.17 16.84.04-14.44-29.17-16.84-.04 14.44zm.05-18.77l29.17 16.84.04-14.44-29.17-16.84-.04 14.44zm.05-18.77l29.18 16.84.04-14.44-29.18-16.84-.04 14.44zm.1-33.21l-.04 14.44 29.17 16.84.04-14.44-29.17-16.84z"/></g><g class="Ab" opacity=".5" fill="#f9ed32"><path d="M1711 715.58l29.17 16.84.04-14.43-29.17-16.85-.04 14.44zm.05-18.77l29.17 16.84.05-14.44-29.18-16.84-.04 14.44zm.06-18.77l29.17 16.84.04-14.44-29.17-16.84-.04 14.44zm.05-18.77l29.17 16.84.04-14.44-29.17-16.84-.04 14.44zm.05-18.77l29.17 16.84.04-14.44-29.17-16.84-.04 14.44zm.06-18.77l29.17 16.84.04-14.44-29.17-16.84-.04 14.44zm.05-18.77l29.17 16.84.04-14.44-29.17-16.84-.04 14.44zm.05-18.77l29.17 16.84.04-14.44-29.17-16.84-.04 14.44zm.05-18.77l29.18 16.84.04-14.44-29.17-16.84-.05 14.44zm38.08 172.39l29.18 16.84.04-14.43-29.17-16.85-.05 14.44zm.06-18.77l29.17 16.84.04-14.44-29.17-16.84-.04 14.44zm.05-18.77l29.17 16.84.04-14.44-29.17-16.84-.04 14.44zm.05-18.77l29.18 16.84.04-14.44-29.18-16.84-.04 14.44zm.06-18.77l29.17 16.84.04-14.44-29.17-16.84-.04 14.44zm38.29 97.31l29.17 16.84.04-14.43-29.17-16.84-.04 14.43zm.05-18.77l29.17 16.84.04-14.44-29.17-16.84-.04 14.44zm.06-18.77l29.17 16.84.04-14.44-29.17-16.84-.04 14.44zm38.39 59.77l29.17 16.84.04-14.44-29.17-16.83-.04 14.43zm.06-18.77l29.16 16.84.04-14.45-29.16-16.83-.04 14.44zm.05-18.77l29.16 16.84.04-14.44-29.16-16.84-.04 14.44zm.05-18.77l29.17 16.84.04-14.44-29.17-16.84-.04 14.44zm.06-18.77l29.16 16.84.04-14.44-29.16-16.84-.04 14.44zm.05-18.77l29.16 16.84.04-14.44-29.16-16.84-.04 14.44zm.05-18.77l29.17 16.84.04-14.44-29.17-16.84-.04 14.44zm38.19 134.85l29.16 16.84.04-14.44-29.16-16.83-.04 14.43zm.05-18.77l29.16 16.84.05-14.44-29.17-16.84-.04 14.44zm.05-18.77l29.17 16.84.04-14.44-29.17-16.84-.04 14.44zm.06-18.77l29.16 16.84.04-14.44-29.16-16.84-.04 14.44zm.05-18.77l29.16 16.84.04-14.44-29.16-16.84-.04 14.44zm38.29 97.31l29.17 16.84.04-14.44-29.17-16.84-.04 14.44zm.05-18.77l29.17 16.84.04-14.44-29.17-16.85-.04 14.45zm.05-18.77l29.17 16.84.04-14.44-29.17-16.85-.04 14.45zm.05-18.77l29.18 16.84.04-14.44-29.18-16.84-.04 14.44zm.06-18.77l29.17 16.84.04-14.44-29.17-16.84-.04 14.44zm.05-18.77l29.17 16.84.04-14.44-29.17-16.84-.04 14.44zm.05-18.77l29.18 16.84.04-14.44-29.17-16.84-.05 14.44zm.06-18.77l29.17 16.84.04-14.44-29.17-16.84-.04 14.44zm38.13 153.62l29.17 16.84.04-14.43-29.17-16.85-.04 14.44zm.05-18.77l29.17 16.84.05-14.44-29.18-16.84-.04 14.44zm.06-18.77l29.17 16.84.04-14.44-29.17-16.84-.04 14.44zm.05-18.77l29.17 16.84.04-14.44-29.17-16.84-.04 14.44zm.05-18.77l29.17 16.84.04-14.44-29.17-16.84-.04 14.44zm.06-18.77l29.17 16.84.04-14.44-29.17-16.84-.04 14.44zm.05-18.77l29.17 16.84.04-14.44-29.17-16.84-.04 14.44zm.05-18.77l29.17 16.84.04-14.44-29.17-16.84-.04 14.44zm.05-18.77l29.18 16.84.04-14.44-29.18-16.84-.04 14.44zm38.08 172.39l29.18 16.84.04-14.43-29.17-16.85-.05 14.44zm.06-18.77l29.17 16.84.04-14.44-29.17-16.84-.04 14.44zm.05-18.77l29.17 16.84.04-14.44-29.17-16.84-.04 14.44zm.05-18.77l29.18 16.84.04-14.44-29.18-16.84-.04 14.44zm.1-33.21l-.04 14.44 29.17 16.84.04-14.44-29.17-16.84z"/></g><path d="M480.16 248.36l99.69-57.54a8.36 8.36 0 0 1 8.34 0h0l.09.05h0l12 7-11.67 41.75v80a28 28 0 0 1-14 24.24l-84.55 48.8-4.64 12.55-12.11-7h0a15.08 15.08 0 0 1-7.75-13.26V273.57a29.11 29.11 0 0 1 14.6-25.21z" class="Ch"/><path d="M477.34 280.4v111.23a15.23 15.23 0 0 0 22.84 13.19l90.08-52a28 28 0 0 0 14-24.25V205a8.45 8.45 0 0 0-12.68-7.32l-99.68 57.5a29.12 29.12 0 0 0-14.56 25.22z" fill="url(#AB)"/><path d="M529.5 276.56c-11.2 6.47-20.25 22.14-20.21 35a23 23 0 0 0 .35 4.1c-7.86 4.62-14.19 15.63-14.17 24.69s6.34 12.7 14.14 8.34l65.52-37.82.37-.21c6.7-3.87 12.12-13.26 12.1-21s-5.48-10.81-12.18-6.94a18.92 18.92 0 0 0-2.59 1.81c-.35-10-7.7-14-16.68-8.81a29.46 29.46 0 0 0-7.21 6c-2.57-7.96-10.31-10.43-19.44-5.16z" class="CT"/><path d="M1536.53 282.69l-123.29-71.15a10.32 10.32 0 0 0-10.31-.07h0l-.11.06h0l-14.83 8.6 14.43 51.63v98.89a34.61 34.61 0 0 0 17.31 30L1524.24 461l5.74 15.52 15-8.68h0a18.66 18.66 0 0 0 9.58-16.4V313.87a36 36 0 0 0-18.03-31.18z" class="Ch"/><path d="M1540 322.32v137.55a18.84 18.84 0 0 1-28.25 16.32l-111.4-64.3a34.6 34.6 0 0 1-17.31-30V229a10.45 10.45 0 0 1 15.67-9.05L1522 291.14a36 36 0 0 1 18 31.18z" fill="url(#AC)"/><g class="CT"><path d="M1459.11 376.29c-6.57-3.79-11.93-.74-11.95 6.81s5.3 16.78 11.87 20.58 11.94.74 12-6.82-5.34-16.77-11.92-20.57zm-.19-38.88c-14.9-8.6-25-5.55-25.6-5.34-3.63 1.17-4.31 6.84-1.48 12.64a17.6 17.6 0 0 0 6.55 7.46 6.4 6.4 0 0 0 5.11.91c.37-.11 6.29-1.67 15.24 3.5 4.84 2.79 10.56 7.54 16.77 15.54a15.53 15.53 0 0 0 4.36 3.95c2.8 1.61 5.53 1.58 7.11-.46 2.43-3.1 1.23-9.7-2.68-14.73-9.3-11.95-17.93-19.17-25.38-23.47zm51.08 8.68c-18.51-23.85-35.71-38.19-50.44-46.7-29-16.74-48.45-10.87-49.66-10.47-3.61 1.17-4.25 6.79-1.44 12.57A17.57 17.57 0 0 0 1415 309a6.54 6.54 0 0 0 5.11.94c1-.3 16.22-4.66 39.26 8.65 12.11 7 26.37 18.86 41.82 38.76a15.42 15.42 0 0 0 4.37 3.95c2.79 1.62 5.53 1.58 7.1-.46 2.43-3.12 1.23-9.72-2.66-14.75z"/></g><path d="M612.59 901.25v88.41l419.76-242.78v-88.06L612.59 901.25z" fill="url(#AD)"/><path d="M1032.35 658.82L612.59 901.25 430.41 796.1l419.75-242.42 182.19 105.14z" class="Cg"/><path d="M612.59 901.14v88.52L430.41 884.5v-88.51l182.18 105.15z" fill="url(#AE)"/><path d="M612.59 864.92v23.67l419.76-242.79v-23.31L612.59 864.92z" fill="url(#AF)"/><path d="M1032.35 622.49L612.59 864.92 430.41 759.76l419.75-242.41 182.19 105.14z" fill="url(#AG)"/><path d="M612.59 864.81v23.78L430.41 783.43v-23.77l182.18 105.15z" fill="url(#AH)"/><path class="Aj Cb" d="M1711 1264.05c0 18.17-36.35 32.9-81.19 32.9s-81.19-14.73-81.19-32.9 36.35-32.9 81.19-32.9 81.19 14.73 81.19 32.9z" fill="#2c788f"/><path d="M1670.41 1246.73a31.43 31.43 0 0 0-8 3.66c-5.64 3.6-9.17 0-9.17 0l-19.66 1.2c-2.33 2.8-1.48 24.21-1.48 24.21 5 2.45 11.7 2.35 17.12 1.85 12.63-1.16 24.09-7.51 33.58-16a18.4 18.4 0 0 0 1.83-1.92c-1.49-15.01-11.71-13.58-14.22-13z" fill="#5a74b7"/><path d="M1684,1256.8c-10,8.88-22,15.54-35.23,16.75-5.27.49-11.66.59-16.77-1.45,0,2.21.1,3.7.1,3.7,5,2.45,11.7,2.35,17.12,1.85,12.63-1.16,24.09-7.51,33.58-16a18.4,18.4,0,0,0,1.83-1.92,26,26,0,0,0-.49-3.11Z" fill="#59559d"/><path d="M1623.57 1232.84a31.49 31.49 0 0 0-8 3.66c-5.64 3.6-9.16 0-9.16 0l-19.67 1.2c-2.32 2.8-1.48 24.21-1.48 24.21 5 2.46 11.7 2.35 17.12 1.85 12.63-1.16 24.09-7.51 33.58-16a17.46 17.46 0 0 0 1.83-1.92c-1.5-15.01-11.72-13.58-14.22-13z" fill="#5a74b7"/><path d="M1637.11 1242.91c-9.95 8.88-22 15.54-35.22 16.76-5.28.48-11.66.58-16.78-1.46a60.76 60.76 0 0 0 .1 3.7c5 2.46 11.71 2.35 17.12 1.85 12.63-1.16 24.09-7.51 33.58-16a17.46 17.46 0 0 0 1.83-1.92 26 26 0 0 0-.49-3.11 1.92 1.92 0 0 1-.14.18z" fill="#59559d"/><g class="Ci"><path d="M1707.92 825.39c-3.55 4.8-6.43 12-5.44 23.33l15.18 7.31s9.32-5.29 7.5-15.67-13.68-19.77-17.24-14.97zM1577.19 820c2 5.3 2.79 12.83-.7 23.64l-14.86 4.36a15.59 15.59 0 0 1-2.85-16.58c3.99-9.8 16.44-16.77 18.41-11.42z"/></g><path d="M1607.5,931.06a20.22,20.22,0,0,0,2.7,2.47c5.69,4.3,14.76,7.29,21.7,9.13,1.1.29,2.3.55,3.53.76l-.47,2.14c-7.37,2-14.62,3.1-19.72,1.68-3.79-1-7.76-2.66-7.76-6.65v-9.54Z" fill="#f6a3a8"/><path d="M1610.41 886.08c6.06-1 14.34-1.18 20.2.55 9.86 2.91 15.24 9.2 17.62 18.56s3.11 25.14-2.29 33.9c-3.37 5.48-10.89 4.45-16.26 3-6.49-1.72-15-4.52-20.29-8.54-7.42-5.6-11.34-17.87-11.79-26.73-.39-7.61 3.55-19.23 12.81-20.74z" class="Ci"/><g fill="#328dcc"><path d="M1594.3,1047.12s-6.84,25.83-6.08,46l-5.89,143s10.16,9,29.72,6.93a4.44,4.44,0,0,0,4-4.19l5.46-190.35Z"/><path d="M1653.74,1058.9,1617.5,1045a98.35,98.35,0,0,0,.37,43.3l10.23,164.13a48.55,48.55,0,0,0,29.49,1.34,5.62,5.62,0,0,0,4.13-5.7Z"/></g><path d="M1720.23 856.76c-9.91-15-21.26-14.11-21.26-14.11-12.62 45.82-26.24 71.85-34.36 84.6a30.92 30.92 0 0 1-17.45 13l-6 1.76a28 28 0 0 1-12.54.73l-18.47-3.13a16.32 16.32 0 0 1-5-1.73 10.53 10.53 0 0 1-4.68-5c-4.78-10.89-19-47.33-19-96.41 0 0-15.28-1.24-22.3 12.39 0 0-2.56 56.39 25.28 108.5.23 8.08.74 16.67 1 22 .45 8.8 1.25 19.06 2.52 31 .11 1.14 1.63 26.12 1.34 36.74a5.2 5.2 0 0 0 1.81 4.12l2.65 2.23c18 16.56 57.67 6.14 57.67 6.14 4.32-.44 6.79-5.31 6.91-9.07.27-8.68-.25-40.92-.25-40.92h0c.21-7.86.27-16.18.24-24.27a15.34 15.34 0 0 1 3.69-9.94c42.71-50.39 58.2-118.63 58.2-118.63z" fill="#ed5f61"/><path d="M1649 882.33c-2.09.35-4.91 2.28-8.46 3a14.18 14.18 0 0 1-6.9-5.84s-3.13 3.07-9.58 3.5h0a46.2 46.2 0 0 0-10.39 1.14c-10.38 2.34-16.58 12.41-16.05 22.72.45 8.86 1.73 21.73 9.14 27.33 4.09 3.1 10.43 4.31 15.92 6 24.66-4.91 12.57-32.29 12.57-32.29 5.86.12 10.69-3.19 12.54-4.23-.02.02 5.44-10.47 1.21-21.33z" fill="#b74e52"/><path d="M851.9 664.37v36.28l132-75.96v-36.28l-132 75.96z" class="Cl"/><use xlink:href="#Bd" fill="#354c5c"/><path d="M851.9 664.37v36.28l-132.68-76.66v-36.2l132.68 76.58z" fill="#334551"/><use xlink:href="#Be" class="CU"/><path d="M774.92 572.94l-12.72 7.32-12.79-7.38 12.72-7.33 12.79 7.39z" class="CT"/><use xlink:href="#Bf" class="CU"/><use xlink:href="#Be" x="14.74" y="-8.51" fill="url(#AI)"/><path d="M789.66 564.43l-12.72 7.32-12.79-7.38 12.73-7.32 12.78 7.38z" fill="url(#AJ)"/><use xlink:href="#Bf" x="14.74" y="-8.51" fill="url(#AK)"/><path d="M791.69 563.25V565l12.72-7.33v-1.75l-12.72 7.33z" class="CX"/><path d="M804.41 555.92l-12.72 7.33-12.79-7.39 12.72-7.32 12.79 7.38z" class="Cc"/><path d="M791.69 563.25V565l-12.79-7.39v-1.75l12.79 7.39z" class="CX"/><path d="M806.43 554.74v1.75l12.73-7.32v-1.75l-12.73 7.32z" class="CU"/><path d="M819.16 547.42l-12.73 7.32-12.79-7.38 12.73-7.32 12.79 7.38z" class="CT"/><use xlink:href="#Bf" x="44.23" y="-25.52" class="CU"/><path d="M821.18 546.23v1.76l12.72-7.33v-1.75l-12.72 7.32z" fill="url(#AL)"/><use xlink:href="#Bg" fill="url(#AM)"/><use xlink:href="#Bh" fill="url(#AN)"/><path d="M835.92 537.73v1.75l12.73-7.32v-1.76l-12.73 7.33z" class="CX"/><path d="M848.65 530.4l-12.73 7.33-12.78-7.38 12.72-7.33 12.79 7.38z" class="Cc"/><path d="M835.92 537.73v1.75l-12.78-7.39v-1.74l12.78 7.38z" class="CX"/><use xlink:href="#Be" x="88.47" y="-51.04" class="CU"/><use xlink:href="#Bg" x="29.49" y="-17.01" class="CT"/><use xlink:href="#Bf" x="88.47" y="-51.04" class="CU"/><path d="M744.7 744.19v18.33l107.2-61.88v-18.33l-107.2 61.88z" class="Cl"/><path d="M851.9 682.31l-107.2 61.88-132.68-76.59 107.2-61.86 132.68 76.57z" fill="#476372"/><path d="M744.7 744.19v18.33l-132.68-76.66V667.6l132.68 76.59z" fill="url(#AO)"/><path d="M612.7 802.2v36.28l132-75.96v-36.28l-132 75.96z" class="Cl"/><use xlink:href="#Bd" x="-239.2" y="137.83" fill="#354c5c"/><path d="M612.7 802.2v36.28l-132.68-76.66v-36.2L612.7 802.2z" fill="#334551"/><path d="M928.38 559.28c-25.44-14.69-66.72-14.69-92 0s-25.15 38.6.3 53.29 66.71 14.69 92 0 25.14-38.57-.3-53.29z" fill="#37ffeb"/><path d="M925.66 547.33c-23.93-13.82-62.76-13.82-86.54 0s-23.65 36.31.28 50.13 62.76 13.82 86.55 0 23.65-36.31-.29-50.13z" fill="#576977"/><path d="M943.69 576.45v-3.88.68.47.4.47.39c0 .13 0 .32-.07.47s0 .26-.05.39l-.09.48c0 .13 0 .26-.07.38s-.07.32-.1.48l-.09.38c0 .16-.09.32-.13.47l-.1.38-.15.49c0 .12-.07.24-.11.36l-.19.52c0 .11-.07.22-.11.32l-.34.86v.07l-.34.78a2.59 2.59 0 0 0-.14.29l-.27.55-.34.35-.28.5c-.05.1-.12.21-.18.31l-.33.57-.21.34-.35.53c-.07.12-.15.23-.23.35l-.37.52-.24.34-.41.54-.24.3-.76.93-.16.18-.67.76-.27.28-.67.7-.23.23-.93.89-.37.34-.45.4-.4.34-.46.39-.42.34-.47.38-.45.34-.49.38-.46.33-.5.37-.48.33-.53.36-.49.33-.55.35-.51.32-.56.35-.91.55-2 1.11-.54.29-1.88.93-.23.12-2.15 1-.56.24-1.89.77-.39.15-2.27.82-.56.19-1.54.5-1.49.45-1.27.36-1.52.41-1.29.32-1.55.36-1.3.29-1.6.31-1.44.27-.65.11-2.23.35-.35.05-2.53.32-.65.07-1.56.15-2 .17-1.24.08c-.69 0-1.38.08-2.07.11h-1.16-1.8-1.24-1.94-1.11c-.6 0-1.2 0-1.79-.07-.4 0-.8 0-1.19-.05-.66 0-1.32-.08-2-.13l-1-.07-2.72-.26h-.23l-2.93-.37-.64-.1-2.32-.36-1.06-.2-1.87-.35-1-.22-2-.46-1.14-.29-1.85-.49-1.55-.44-.6-.18q-1.18-.36-2.34-.75l-.41-.15-1.93-.69-.64-.25-1.48-.6-1-.41-1.43-.64-.92-.42-1.53-.76-.75-.37-2.2-1.21a41.82 41.82 0 0 1-13.54-11.8l-1.06-1.63a25.85 25.85 0 0 1-1.69-3.31 21.7 21.7 0 0 1-1.74-8.5v4.41.47 3.14.47V582v.47.11c0 15.34 15.18 25 27.9 29.88 13.71 5.24 28.66 6.61 43.21 5.26a90.71 90.71 0 0 0 23.25-5.16c7.46-2.78 15.06-6.91 20.56-12.76 4.16-4.42 7.4-10.68 7.42-16.87v-1.63.48-2.19.47V576c-.06.14-.07.3-.07.45z" fill="#3f4951"/><path d="M910.48 554.43c-15.51-8.95-40.66-8.95-56.07 0-8 4.65-12.39 11-12.38 17.91s4.47 13.35 12.56 18c7.75 4.47 17.91 6.71 28.06 6.71s20.3-2.24 28-6.72c8-4.64 12.39-11 12.38-17.91s-4.46-13.32-12.55-17.99zm-2.82 30.75c-13.76 8-36.23 8-50.08 0-6.16-3.56-9.56-8.12-9.57-12.85s3.33-9.2 9.4-12.72c6.88-4 15.93-6 25-6s18.15 2 25.08 6c6.16 3.56 9.56 8.12 9.56 12.84s-3.33 9.2-9.39 12.73z" fill="#7a8e9e"/><g class="CT"><path d="M872.15 643.75c.69.4.69 1 0 1.45l-7.15 4.17a2.75 2.75 0 0 1-2.5 0l-7-4a.75.75 0 0 1 0-1.43l7.19-4.18a2.75 2.75 0 0 1 2.5 0zm-10.8-6.25a.77.77 0 0 1 0 1.45l-7.19 4.17a2.75 2.75 0 0 1-2.5 0l-7-4a.75.75 0 0 1 0-1.43l7.2-4.18a2.73 2.73 0 0 1 2.49 0zm-10.79-6.25c.69.4.69 1 0 1.45l-7.18 4.17a2.75 2.75 0 0 1-2.5 0l-7-4c-.7-.4-.7-1.05 0-1.44l7.19-4.18a2.75 2.75 0 0 1 2.5 0zm-10.8-6.25c.69.4.69 1 0 1.45l-7.18 4.17a2.75 2.75 0 0 1-2.5 0l-7-4a.76.76 0 0 1 0-1.44l7.19-4.18a2.75 2.75 0 0 1 2.5 0zM829 618.75a.77.77 0 0 1 0 1.45l-7.19 4.17a2.73 2.73 0 0 1-2.49 0l-7-4a.76.76 0 0 1 0-1.44l7.19-4.18a2.73 2.73 0 0 1 2.49 0zm31.62 31.76a.77.77 0 0 1 0 1.45l-7.18 4.18a2.82 2.82 0 0 1-2.5 0l-7-4a.76.76 0 0 1 0-1.44l7.19-4.18a2.75 2.75 0 0 1 2.5 0zm-10.8-6.25a.77.77 0 0 1 0 1.45l-7.19 4.18a2.82 2.82 0 0 1-2.5 0l-7-4a.76.76 0 0 1 0-1.44l7.2-4.18a2.73 2.73 0 0 1 2.49 0zM839 638a.77.77 0 0 1 0 1.45l-7.18 4.18a2.82 2.82 0 0 1-2.5 0l-7-4c-.69-.4-.7-1 0-1.44l7.19-4.18a2.75 2.75 0 0 1 2.5 0zm-10.77-6.24a.76.76 0 0 1 0 1.45l-7.18 4.18a2.82 2.82 0 0 1-2.5 0l-7-4a.76.76 0 0 1 0-1.44l7.19-4.18a2.75 2.75 0 0 1 2.5 0zm-10.79-6.24a.76.76 0 0 1 0 1.44l-7.19 4.18a2.76 2.76 0 0 1-2.49 0l-7-4a.76.76 0 0 1 0-1.44l7.19-4.18a2.8 2.8 0 0 1 2.49 0zm18.3 56a.76.76 0 0 1 0 1.44l-7.18 4.18a2.75 2.75 0 0 1-2.5 0l-7-4c-.7-.4-.7-1 0-1.44l7.19-4.18a2.82 2.82 0 0 1 2.5 0zm-10.8-6.25a.76.76 0 0 1 0 1.44l-7.18 4.18a2.75 2.75 0 0 1-2.5 0l-7-4a.76.76 0 0 1 0-1.44l7.19-4.18a2.82 2.82 0 0 1 2.5 0zM814.15 669a.76.76 0 0 1 0 1.44l-7.15 4.2a2.73 2.73 0 0 1-2.49 0l-7-4a.76.76 0 0 1 0-1.44l7.19-4.18a2.8 2.8 0 0 1 2.49 0zm-10.8-6.23a.76.76 0 0 1 0 1.44l-7.18 4.18a2.75 2.75 0 0 1-2.5 0l-7-4a.76.76 0 0 1 0-1.44l7.19-4.18a2.82 2.82 0 0 1 2.5 0zm-10.8-6.25a.77.77 0 0 1 0 1.45l-7.19 4.17a2.75 2.75 0 0 1-2.5 0l-7-4a.76.76 0 0 1 0-1.44l7.19-4.18a2.82 2.82 0 0 1 2.5 0zm31.66 31.76c.69.4.69 1 0 1.45L817 693.9a2.75 2.75 0 0 1-2.5 0l-7-4c-.69-.39-.7-1 0-1.43l7.19-4.18a2.75 2.75 0 0 1 2.5 0zm-10.8-6.28a.76.76 0 0 1 0 1.45l-7.18 4.17a2.75 2.75 0 0 1-2.5 0l-7-4a.75.75 0 0 1 0-1.43l7.19-4.18a2.75 2.75 0 0 1 2.5 0zm-10.79-6.22a.77.77 0 0 1 0 1.45l-7.19 4.17a2.73 2.73 0 0 1-2.49 0l-7-4a.76.76 0 0 1 0-1.44l7.19-4.18a2.73 2.73 0 0 1 2.49 0zm-10.8-6.25c.69.4.69 1 0 1.45l-7.18 4.17a2.75 2.75 0 0 1-2.5 0l-7-4a.76.76 0 0 1 0-1.44l7.19-4.18a2.75 2.75 0 0 1 2.5 0zM781 663.28a.77.77 0 0 1 0 1.45l-7.19 4.17a2.75 2.75 0 0 1-2.5 0l-7-4a.76.76 0 0 1 0-1.44l7.2-4.18a2.73 2.73 0 0 1 2.49 0z"/></g><g class="Cc"><path d="M772.16 644.63a.77.77 0 0 1 0 1.45l-7.16 4.17a2.75 2.75 0 0 1-2.5 0l-7-4a.75.75 0 0 1 0-1.43l7.2-4.18a2.73 2.73 0 0 1 2.49 0zm-10.79-6.25c.69.4.69 1 0 1.45l-7.18 4.17a2.75 2.75 0 0 1-2.5 0l-7-4c-.69-.39-.7-1 0-1.43l7.19-4.18a2.75 2.75 0 0 1 2.5 0zm-10.8-6.25c.69.4.69 1 0 1.45l-7.18 4.17a2.75 2.75 0 0 1-2.5 0l-7-4a.75.75 0 0 1 0-1.43l7.19-4.18a2.75 2.75 0 0 1 2.5 0zm-10.79-6.25a.77.77 0 0 1 0 1.45l-7.19 4.17a2.73 2.73 0 0 1-2.49 0l-7-4a.76.76 0 0 1 0-1.44l7.19-4.18a2.73 2.73 0 0 1 2.49 0zM729 619.63a.77.77 0 0 1 0 1.45l-7.18 4.17a2.75 2.75 0 0 1-2.5 0l-7-4a.76.76 0 0 1 0-1.44l7.19-4.18a2.75 2.75 0 0 1 2.5 0zm31.64 31.76a.77.77 0 0 1 0 1.45l-7.19 4.16a2.73 2.73 0 0 1-2.49 0l-7-4a.76.76 0 0 1 0-1.44l7.19-4.18a2.73 2.73 0 0 1 2.49 0zm-10.8-6.25a.77.77 0 0 1 0 1.45l-7.18 4.18a2.82 2.82 0 0 1-2.5 0l-7-4a.76.76 0 0 1 0-1.44l7.19-4.18a2.75 2.75 0 0 1 2.5 0zM739 638.89a.76.76 0 0 1 0 1.45l-7.18 4.18a2.82 2.82 0 0 1-2.5 0l-7-4a.76.76 0 0 1 0-1.44l7.19-4.18a2.75 2.75 0 0 1 2.5 0zm-10.75-6.25a.77.77 0 0 1 0 1.45l-7.19 4.18a2.8 2.8 0 0 1-2.49 0l-7-4a.76.76 0 0 1 0-1.44l7.19-4.18a2.75 2.75 0 0 1 2.5 0zm-10.8-6.24a.76.76 0 0 1 0 1.44l-7.18 4.16a2.82 2.82 0 0 1-2.5 0l-7-4a.76.76 0 0 1 0-1.44l7.19-4.18a2.82 2.82 0 0 1 2.5 0z"/></g><path d="M805.29,699.14a.77.77,0,0,1,0,1.45l-7.19,4.17a2.73,2.73,0,0,1-2.49,0l-7-4a.75.75,0,0,1,0-1.43l7.19-4.18a2.73,2.73,0,0,1,2.49,0Z" fill="url(#AP)"/><path d="M794.49,692.89c.69.4.69,1,0,1.45l-7.18,4.17a2.75,2.75,0,0,1-2.5,0l-7-4a.76.76,0,0,1,0-1.44l7.19-4.18a2.75,2.75,0,0,1,2.5,0Z" fill="url(#AQ)"/><path d="M783.69,686.64a.77.77,0,0,1,0,1.45l-7.19,4.17a2.75,2.75,0,0,1-2.5,0l-7-4a.76.76,0,0,1,0-1.44l7.19-4.18a2.75,2.75,0,0,1,2.5,0Z" fill="url(#AR)"/><path d="M772.9,680.39a.77.77,0,0,1,0,1.45L765.72,686a2.75,2.75,0,0,1-2.5,0l-7-4c-.7-.4-.7-1.05,0-1.44l7.19-4.18a2.75,2.75,0,0,1,2.5,0Z" fill="url(#AS)"/><path d="M762.1,674.14a.77.77,0,0,1,0,1.45l-7.18,4.17a2.75,2.75,0,0,1-2.5,0l-7-4a.76.76,0,0,1,0-1.44l7.19-4.18a2.75,2.75,0,0,1,2.5,0Z" fill="url(#AT)"/><path d="M793.76,705.9a.77.77,0,0,1,0,1.45l-7.19,4.18a2.8,2.8,0,0,1-2.49,0l-7-4a.76.76,0,0,1,0-1.44l7.19-4.18a2.75,2.75,0,0,1,2.5,0Z" fill="url(#AU)"/><path d="M783,699.66a.76.76,0,0,1,0,1.44l-7.18,4.18a2.82,2.82,0,0,1-2.5,0l-7-4a.76.76,0,0,1,0-1.44l7.19-4.18a2.75,2.75,0,0,1,2.5,0Z" fill="url(#AV)"/><path d="M772.16,693.41a.76.76,0,0,1,0,1.44L765,699a2.79,2.79,0,0,1-2.5,0l-7-4a.76.76,0,0,1,0-1.44l7.2-4.18a2.8,2.8,0,0,1,2.49,0Z" fill="url(#AW)"/><path d="M761.37,687.16a.76.76,0,0,1,0,1.44l-7.18,4.18a2.79,2.79,0,0,1-2.5,0l-7-4c-.69-.4-.7-1,0-1.44l7.19-4.18a2.82,2.82,0,0,1,2.5,0Z" fill="url(#AX)"/><path d="M750.57,680.91a.76.76,0,0,1,0,1.44l-7.18,4.18a2.79,2.79,0,0,1-2.5,0l-7-4a.76.76,0,0,1,0-1.44l7.19-4.18a2.82,2.82,0,0,1,2.5,0Z" fill="url(#AY)"/><g class="Cf"><path d="M742.92 662.77a.76.76 0 0 1 0 1.44l-7.19 4.18a2.73 2.73 0 0 1-2.49 0l-7-4a.76.76 0 0 1 0-1.44l7.19-4.18a2.8 2.8 0 0 1 2.49 0zm-10.8-6.25c.69.39.69 1 0 1.45l-7.18 4.17a2.75 2.75 0 0 1-2.5 0l-7-4a.76.76 0 0 1 0-1.44l7.19-4.18a2.82 2.82 0 0 1 2.5 0zm-10.8-6.25a.77.77 0 0 1 0 1.45l-7.19 4.17a2.75 2.75 0 0 1-2.5 0l-7-4a.75.75 0 0 1 0-1.43l7.19-4.19a2.82 2.82 0 0 1 2.5 0zM710.53 644c.69.39.69 1 0 1.45l-7.18 4.17a2.75 2.75 0 0 1-2.5 0l-7-4a.75.75 0 0 1 0-1.43L701 640a2.75 2.75 0 0 1 2.5 0zm-10.8-6.23c.69.4.69 1 0 1.45l-7.18 4.17a2.75 2.75 0 0 1-2.5 0l-7-4a.75.75 0 0 1 0-1.43l7.19-4.18a2.75 2.75 0 0 1 2.5 0zm31.66 31.76a.77.77 0 0 1 0 1.45l-7.19 4.17a2.73 2.73 0 0 1-2.49 0l-7-4a.76.76 0 0 1 0-1.44l7.19-4.18a2.73 2.73 0 0 1 2.49 0zm-10.8-6.25a.77.77 0 0 1 0 1.45l-7.18 4.17a2.75 2.75 0 0 1-2.5 0l-7-4a.76.76 0 0 1 0-1.44l7.19-4.18a2.75 2.75 0 0 1 2.5 0zm-10.8-6.28a.77.77 0 0 1 0 1.45l-7.19 4.17a2.75 2.75 0 0 1-2.5 0l-7-4a.76.76 0 0 1 0-1.44l7.2-4.18a2.73 2.73 0 0 1 2.49 0zM699 650.78a.77.77 0 0 1 0 1.45l-7.18 4.17a2.75 2.75 0 0 1-2.5 0l-7-4c-.69-.4-.7-1 0-1.44l7.19-4.18a2.75 2.75 0 0 1 2.5 0zm-10.8-6.25a.77.77 0 0 1 0 1.45l-7.2 4.18a2.82 2.82 0 0 1-2.5 0l-7-4a.76.76 0 0 1 0-1.44l7.19-4.18a2.75 2.75 0 0 1 2.5 0z"/></g><path d="M779,597.38v14.24c0,1.24-2.19,2.24-4.89,2.24s-4.89-1-4.89-2.24V597.38Z" fill="url(#AZ)"/><use xlink:href="#Bi" fill="url(#Aa)"/><path d="M765.58,589.65v14.24c0,1.24-2.19,2.25-4.89,2.25s-4.89-1-4.89-2.25V589.65Z" fill="url(#Ab)"/><use xlink:href="#Bj" fill="url(#Ac)"/><path d="M752.18,581.92v14.24c0,1.24-2.19,2.25-4.89,2.25s-4.89-1-4.89-2.25V581.92Z" fill="url(#Ad)"/><use xlink:href="#Bj" x="-13.4" y="-7.73" fill="url(#Ac)"/><path d="M738.79,574.2v14.24c0,1.24-2.19,2.24-4.89,2.24s-4.89-1-4.89-2.24V574.2Z" fill="url(#Ae)"/><ellipse cx="733.9" cy="574.2" rx="4.89" ry="2.24" fill="url(#Af)"/><path d="M523 718.2v1.75l12.73-7.32v-1.75L523 718.2z" class="CU"/><path d="M535.73 710.88L523 718.2l-12.79-7.38 12.73-7.32 12.79 7.38z" class="CT"/><path d="M523 718.2v1.75l-12.79-7.39v-1.74L523 718.2z" class="CU"/><path d="M537.75 709.69v1.76l12.72-7.32v-1.76l-12.72 7.32z" fill="url(#Ag)"/><use xlink:href="#Bg" x="-283.43" y="163.46" fill="url(#AM)"/><use xlink:href="#Bh" x="-283.43" y="163.46" fill="url(#Ah)"/><path d="M552.49 701.19v1.75l12.73-7.32v-1.75l-12.73 7.32z" class="CX"/><path d="M565.22 693.87l-12.73 7.32-12.78-7.38 12.72-7.32 12.79 7.38z" class="Cc"/><path d="M552.49 701.19v1.75l-12.78-7.39v-1.74l12.78 7.38z" class="CX"/><use xlink:href="#Be" x="-194.96" y="112.42" class="CU"/><use xlink:href="#Bg" x="-253.94" y="146.45" class="CT"/><use xlink:href="#Bf" x="-194.96" y="112.42" class="CU"/><path d="M581.99 684.17v1.76l12.72-7.32v-1.76l-12.72 7.32z" fill="url(#Ai)"/><use xlink:href="#Bg" x="-239.19" y="137.94" fill="url(#AM)"/><use xlink:href="#Bh" x="-239.19" y="137.94" fill="url(#Ah)"/><use xlink:href="#Be" x="-165.47" y="95.41" class="CX"/><use xlink:href="#Bg" x="-224.45" y="129.44" class="Cc"/><use xlink:href="#Bf" x="-165.47" y="95.41" class="CX"/><use xlink:href="#Be" x="-150.72" y="86.9" class="CU"/><use xlink:href="#Bg" x="-209.7" y="120.93" class="CT"/><path d="M611.48 667.16v1.75l-12.79-7.38v-1.75l12.79 7.38z" class="CU"/><path d="M689.19 697.23c-25.45-14.7-66.72-14.7-92 0s-25.14 38.6.3 53.29 66.72 14.69 92 0 25.14-38.61-.3-53.29z" fill="#37ffeb"/><path d="M686.47 685.27c-23.94-13.82-62.76-13.82-86.54 0s-23.66 36.31.28 50.13 62.76 13.82 86.54 0 23.65-36.31-.28-50.13z" fill="#576977"/><path d="M704.49 714.4v-3.89.69.46.4.47.4c0 .14 0 .31-.06.47l-.06.39c0 .16-.05.32-.08.48s0 .25-.07.38-.07.31-.11.47l-.09.38-.12.48c0 .12-.07.25-.1.37s-.1.33-.16.49-.07.24-.11.36l-.18.52-.12.33-.34.85v.07l-.34.78-.15.29-.27.55-.18.34-.27.5-.18.31-.34.57a3.87 3.87 0 0 1-.21.34l-.34.53-.24.35c-.11.18-.24.35-.36.52l-.25.34-.41.55-.23.3-.77.93-.15.18-.68.75-.26.28-.67.7-.23.23-.93.89-.37.34-.45.4-.4.34-.46.39-.42.35-.48.38-.44.34-.49.37-.46.34-.51.36-.48.34-.52.36-.5.32-.54.36-.51.32-.57.35-.91.54-2 1.12-.54.28-1.88.94-.24.11-2.15 1-.56.23-1.89.77-.39.15-2.26.82-.56.19-1.54.5-1.49.45-1.27.36-1.52.41-1.29.33-1.56.35-1.3.29-1.59.31-1.44.27-.66.11-2.22.35h-.35l-2.54.32-.64.07-1.57.16-2 .16-1.24.09-2.07.1-1.16.05h-1.8-1.25-1.93-1.11l-1.8-.07h-1.18l-2-.14-1-.07-2.72-.26h-.24l-2.92-.37-.65-.1-2.31-.37-1.07-.2-1.86-.35-1-.22-2-.46-1.14-.29-1.85-.49-1.55-.44-.61-.18-2.33-.75-.41-.15-1.93-.69-.64-.24-1.49-.6-1-.42-1.42-.64-.93-.42-1.52-.76-.75-.37-2.2-1.21a41.59 41.59 0 0 1-13.54-11.8l-1.06-1.63a25.21 25.21 0 0 1-1.69-3.31 21.85 21.85 0 0 1-1.75-8.5v4.41.47 3.14.47 1.25.46.11c0 15.35 15.17 25 27.9 29.89 13.71 5.24 28.66 6.61 43.21 5.26a91.24 91.24 0 0 0 23.25-5.17c7.45-2.78 15.05-6.91 20.56-12.76 4.16-4.42 7.39-10.68 7.41-16.87v-1.57.47-2.19.48-4.09c-.18.13-.18.29-.19.45z" fill="#3f4951"/><path d="M671.29 692.37c-15.51-9-40.67-9-56.08 0-8 4.64-12.39 11-12.38 17.91s4.47 13.34 12.56 18c7.75 4.48 17.92 6.71 28.07 6.71s20.3-2.24 28-6.72c8-4.64 12.38-11 12.37-17.91s-4.46-13.36-12.54-17.99zm-2.83 30.75c-13.76 8-36.22 8-50.08 0-6.16-3.56-9.56-8.12-9.56-12.84s3.33-9.2 9.4-12.73c6.88-4 15.93-6 25-6s18.16 2 25.09 6c6.16 3.56 9.55 8.12 9.56 12.84s-3.34 9.2-9.41 12.73z" fill="#7a8e9e"/><g class="CT"><path d="M633 781.69a.77.77 0 0 1 0 1.45l-7.19 4.18a2.8 2.8 0 0 1-2.49 0l-7-4a.76.76 0 0 1 0-1.44l7.19-4.18a2.73 2.73 0 0 1 2.49 0zm-10.84-6.25a.77.77 0 0 1 0 1.45l-7.16 4.18a2.82 2.82 0 0 1-2.5 0l-7-4a.76.76 0 0 1 0-1.44l7.19-4.18a2.75 2.75 0 0 1 2.5 0zm-10.8-6.25a.77.77 0 0 1 0 1.45l-7.19 4.18a2.82 2.82 0 0 1-2.5 0l-7-4a.76.76 0 0 1 0-1.44l7.2-4.18a2.73 2.73 0 0 1 2.49 0zm-10.79-6.25a.77.77 0 0 1 0 1.45l-7.18 4.18a2.82 2.82 0 0 1-2.5 0l-7-4c-.7-.4-.7-1 0-1.44l7.19-4.18a2.75 2.75 0 0 1 2.5 0zm-10.8-6.24a.76.76 0 0 1 0 1.44l-7.18 4.18a2.82 2.82 0 0 1-2.5 0l-7-4a.76.76 0 0 1 0-1.44l7.19-4.18a2.75 2.75 0 0 1 2.5 0zm31.66 31.76a.76.76 0 0 1 0 1.44l-7.18 4.18a2.79 2.79 0 0 1-2.5 0l-7-4a.76.76 0 0 1 0-1.44l7.19-4.18a2.82 2.82 0 0 1 2.5 0zm-10.8-6.25a.76.76 0 0 1 0 1.44l-7.18 4.18a2.75 2.75 0 0 1-2.5 0l-7-4a.76.76 0 0 1 0-1.44l7.19-4.18a2.82 2.82 0 0 1 2.5 0zm-10.8-6.21a.76.76 0 0 1 0 1.44l-7.19 4.18a2.75 2.75 0 0 1-2.5 0l-7-4a.76.76 0 0 1 0-1.44l7.2-4.18a2.8 2.8 0 0 1 2.49 0zM589 769.71a.76.76 0 0 1 0 1.44l-7.18 4.18a2.75 2.75 0 0 1-2.5 0l-7-4a.76.76 0 0 1 0-1.44l7.19-4.18a2.82 2.82 0 0 1 2.5 0zm-10.76-6.25a.76.76 0 0 1 0 1.44l-7.18 4.18a2.75 2.75 0 0 1-2.5 0l-7-4a.76.76 0 0 1 0-1.44l7.19-4.18a2.82 2.82 0 0 1 2.5 0z"/></g><path d="M539.79,735.32v14.24c0,1.24-2.19,2.25-4.89,2.25s-4.89-1-4.89-2.25V735.32Z" fill="url(#Aj)"/><use xlink:href="#Bj" x="-225.8" y="145.67" fill="url(#Ak)"/><path d="M526.39,727.59v14.24c0,1.24-2.19,2.25-4.89,2.25s-4.89-1-4.89-2.25V727.59Z" fill="url(#Al)"/><use xlink:href="#Bj" x="-239.19" y="137.94" fill="url(#Ac)"/><path d="M513,719.87v14.24c0,1.24-2.19,2.24-4.89,2.24s-4.89-1-4.89-2.24V719.87Z" fill="url(#Am)"/><use xlink:href="#Bi" x="-265.99" y="122.49" fill="url(#Aa)"/><path d="M499.59,712.14v14.24c0,1.24-2.19,2.25-4.89,2.25s-4.89-1-4.89-2.25V712.14Z" fill="url(#An)"/><use xlink:href="#Bi" x="-279.39" y="114.76" fill="url(#Aa)"/><path d="M696.26,1028.57v-25.68l18.55,5.72L921.57,889.16a39.52,39.52,0,0,1,39.52,0l510.87,295,22.57-4v27.65h0a17,17,0,0,1-8.57,14.27L1270.69,1346.4a40,40,0,0,1-40,0l-526.47-304a15.85,15.85,0,0,1-8-13.77h0Z" fill="#7994cc"/><path d="M704.26 989l217.31-125.57a39.52 39.52 0 0 1 39.52 0l524.82 303a17.24 17.24 0 0 1 0 29.85l-215.23 124.36a39.93 39.93 0 0 1-40 0l-526.47-304a16 16 0 0 1 .05-27.64z" fill="url(#Ao)"/><path d="M704.26 1016.68l526.47 304a40 40 0 0 0 40 0l215.23-124.36a17.24 17.24 0 0 0 0-29.85l-524.82-303a39.55 39.55 0 0 0-39.52 0L704.26 989a16 16 0 0 0 0 27.68zm26.46 2.13a15.56 15.56 0 0 1 7.84-12.76L952.78 882.3a38.63 38.63 0 0 1 11.86-4.45 19.47 19.47 0 0 1 13.46 2.39l482.66 278.69a8 8 0 0 1 4.08 7 16.81 16.81 0 0 1-8.48 14.48l-213.17 123.17a39.22 39.22 0 0 1-10.82 4.26 22.09 22.09 0 0 1-16-2.47l-480.66-277.52a9.89 9.89 0 0 1-4.99-9.04z" class="Ch"/><path d="M704.26 1026.06l526.47 304a40 40 0 0 0 40 0l215.23-124.36a17 17 0 0 0 8.57-14.27h0v7.57h0a17 17 0 0 1-8.57 14.26l-215.23 124.37a40 40 0 0 1-40 0l-526.47-304a15.86 15.86 0 0 1-8-13.77h0v-7.57h0a15.85 15.85 0 0 0 8 13.77z" fill="#9cb7e8"/><path d="M846.81 1106.05l-51.13-29.58a1 1 0 0 0-1 0h0l-2 1.14 1.44 5.15v1.77a3.46 3.46 0 0 0 1.73 3L845.1 1116l.58 1.55 2-1.15h0a1.84 1.84 0 0 0 1-1.63v-5.63a3.59 3.59 0 0 0-1.87-3.09z" fill="#d2e5fc"/><path d="M846.63 1110.3v5.63a1.88 1.88 0 0 1-2.82 1.63l-49.94-28.9a3.46 3.46 0 0 1-1.72-3v-7.15a1 1 0 0 1 1.56-.91l51.13 29.58a3.6 3.6 0 0 1 1.79 3.12z" fill="#b1ccf2"/><g fill="#414042"><path class="Bt" d="M861.09 922.51l-50.15 28.83a5.43 5.43 0 0 1-5.39 0l-5.55-3.22a1.76 1.76 0 0 1 0-3l51.32-29.5a4.63 4.63 0 0 1 4.64 0l5.16 3a2.29 2.29 0 0 1-.03 3.89zm-90.95 40.25a12.54 12.54 0 0 1 11.35 0c3.11 1.82 3.1 4.76 0 6.58a12.52 12.52 0 0 1-11.34 0c-3.15-1.82-3.15-4.76-.01-6.58zM906.36 881a16.65 16.65 0 0 1 15.12 0c4.16 2.41 4.14 6.34-.05 8.76a16.71 16.71 0 0 1-15.12 0c-4.16-2.41-4.14-6.34.05-8.76zm-161.79 96.49a12.52 12.52 0 0 1 11.34 0c3.12 1.81 3.1 4.76 0 6.57a12.54 12.54 0 0 1-11.35 0c-3.15-1.81-3.13-4.76.01-6.57z" opacity=".4"/></g><g fill="#fff"><path class="Bu" d="M1230.73 1320.68l-526.47-304a16 16 0 0 1-3.69-24.79l569.78 329a40 40 0 0 1-39.62-.21zM961.09 863.43l524.82 303a17.17 17.17 0 0 1 7.78 20.16l-565.21-326.3a39.51 39.51 0 0 1 32.61 3.14z" opacity=".2"/></g><g fill="#d1d3d4"><path class="Bv" d="M1440.21 1164.24c3.16 1.81 3.18 4.79 0 6.64l-33 19.17a12.7 12.7 0 0 1-11.47 0l-32.15-18.54c-3.17-1.82-3.18-4.79 0-6.6l33-19.2a12.79 12.79 0 0 1 11.47 0zm-55.8 32.27c3.16 1.82 3.18 4.79 0 6.64l-33 19.17a12.7 12.7 0 0 1-11.47 0l-32.15-18.54c-3.18-1.82-3.18-4.79 0-6.6l33-19.19a12.71 12.71 0 0 1 11.46 0zm-55.79 32.27c3.16 1.82 3.18 4.79 0 6.64l-33 19.18a12.73 12.73 0 0 1-11.47 0l-32.15-18.54c-3.17-1.82-3.18-4.79 0-6.6l33-19.2a12.73 12.73 0 0 1 11.47 0zm-55.8 32.28c3.16 1.81 3.18 4.79 0 6.64l-33 19.17a12.72 12.72 0 0 1-11.48 0l-32.15-18.54c-3.17-1.82-3.17-4.79 0-6.6l33-19.2a12.77 12.77 0 0 1 11.46 0z"/></g><g class="AZ"><path d="M1114 1007.72c3.59 2.07 3.46 4.69-.57 7l-59.76 35.16-10.74 6.27-23.69 13.92c-6.31 3.7-12.7 7.84-21.49 9.53-7.72 1.49-16.36.56-24-.67-9.57-1.54-18.39-3.82-25.1-7.69a29.15 29.15 0 0 1-6.55-5c-4.22-4.42-8.68-11.56-1.22-15.68 11.75-6.49 33.52-4 46.69-.44 1.94.52 15.32 5.39 20.83 8.5a6.46 6.46 0 0 0 6 .05l57.33-33.31-91.11-35.5-2.16 1.26c-23.62 13.72-47.92 27-70.33 41.41-4.45 2.86-8.41 5-15.2 5.21-13.53.35-26.76-.12-38.39-4.63a49.88 49.88 0 0 1-6.63-3.26c-9.29-5.36-19.9-14.63-11.43-20 11.82-7.45 36-4.36 49.57-.36a95.23 95.23 0 0 1 19.72 8.35l1.67 1 89.8-52.18c4.91-2.85 8.28-3 14-.74l101 40.92a13.94 13.94 0 0 1 1.76.88z" fill="#fff"/></g><path class="a Cb Cd" d="M628.66 1134.13c-42.3 0-76.59 13.9-76.59 31a14.2 14.2 0 0 0 2.15 7.3c-27.46.6-49.3 9.79-49.3 21.07 0 11.67 23.35 21.13 52.15 21.13 27.44 0 49.88-8.6 51.94-19.5a185.28 185.28 0 0 0 19.65 1c42.29 0 76.58-13.89 76.58-31s-34.24-31-76.58-31z"/><path d="M597.64,1079.5v23.65c0,10.29-18.16,18.63-40.57,18.63s-40.58-8.34-40.58-18.63V1079.5Z" fill="url(#Ap)"/><path d="M516.49 1079.5c0 10.29 18.17 18.63 40.58 18.63s40.57-8.34 40.57-18.63-18.16-18.63-40.57-18.63-40.58 8.34-40.58 18.63z" fill="url(#Aq)"/><path d="M664.21 981.9l-38.64-19.2a2.57 2.57 0 0 0-2.84.35l-28.59 24.68 44.16 23.06 26.54-24.47a2.71 2.71 0 0 0-.63-4.42z" fill="url(#Ar)"/><path d="M664.21 981.9l-38.64-19.2a2.49 2.49 0 0 0-1.15-.27 2.59 2.59 0 0 0-1.69.62l-28.59 24.68 44.16 23.06 26.54-24.47a2.71 2.71 0 0 0-.63-4.42zm-.49 3.2L638 1008.79l-41-21.4 26.75-23.09a1 1 0 0 1 .61-.22 1 1 0 0 1 .41.09l38.64 19.2a1.06 1.06 0 0 1 .25 1.73z" class="Cm"/><g class="CW"><path d="M648.32 1009.47l7.68-5.67c4.57-2.78 7.44-7.62 7.49-10s-1.42-6.34-3-7.1-3.85 4.68-5.45 6.6c-3.47 4.18-5.58 4.13-5.58 4.13a18.1 18.1 0 0 0 1-2c.74-1.37 1.56-2.69 2.35-4a.53.53 0 0 0 .11-.34.36.36 0 0 0-.3-.31c-1.91-.46-4.39 1.76-5.11 3.34s-8.22 10-8.22 10zm-51.9-30.1l7.2-6.28c3.71-3.85 9-5.6 11.4-5.14s5.89 2.76 6.28 4.51-5.41 2.76-7.63 3.9c-4.83 2.48-5.24 4.56-5.24 4.56a19.57 19.57 0 0 1 2.2-.56c1.49-.42 3-.93 4.43-1.41a.6.6 0 0 1 .37 0 .37.37 0 0 1 .23.36c0 2-2.67 3.9-4.36 4.27s-11.52 5.87-11.52 5.87z"/></g><path d="M623,1142.59s2.27,3.31,7.29,1.41a25,25,0,0,1,9.9-1.65,14.89,14.89,0,0,1,5.5,1.24c1.26.57,3.79,2,4.08,3.44.79,4-1.72,6.93-5,8.79-8.81,5-18.86,8.15-29.08,7.1-4.38-.45-9.7-1.4-13.33-4.06,0,0,2.51-16.59,4.78-18.38Z" class="CY"/><path d="M567.19 950.82l-2.33 13.5 22.11 2.93-1.82-11.22-17.96-5.21z" class="Ce"/><path d="M599.49 1049.12s30 .21 29.15 26.81l-2.15 69.28s-13.58 2.79-21.3-2.36l-.9-64.13s-10.88-22.21-4.8-29.6z" class="Ck"/><path d="M659,1155.71s3,3,7.85,0a26.38,26.38,0,0,1,9.95-3.71,15.92,15.92,0,0,1,6,.18c1.42.34,4.33,1.26,4.93,2.75,1.63,4-.38,7.55-3.37,10.13-8.13,7-18,12.26-28.77,13.22-4.64.42-10.35.5-14.66-1.53,0,0-.73-17.73,1.27-20Z" class="CY"/><path d="M561.32 939.79c1.88 13.12 12.83 22.4 24.46 20.73s19.53-13.65 17.64-26.77S590.59 911.34 579 913s-19.56 13.67-17.68 26.79z" class="CW"/><path d="M536.83 1049.12l29.17 4.82 34.43 5.47 39.09 8.72a16.56 16.56 0 0 1 14.37 14.28l9.6 73.52c-9.65 9.34-25.74 2.58-25.74 2.58l-9.33-63.06s-45.69-5.58-68.85-13.2-22.74-33.13-22.74-33.13z" class="Ck"/><g fill="#42e296"><path d="M589.41 965.24s-10.95-.08-18.92-3.22c-8.62-3.4-15 .44-18.72 4.84-3.14 3.68-16.06 86.9-16.06 86.9s42.11 16.43 65 8.38l-2.86-72.75s-1.59-19.72-8.44-24.15z"/><path d="M589.35 965.25s15.29 1.63 19.45 20l8.61 29.5 26.74-17.44s5.56 1.72 5.14 13.35l-32 24.58c-3.75 2.54-9.2-.15-11.3-4.37l-16.67-33.56a34 34 0 0 1 .03-32.06z"/></g><path d="M582.41 910.06a17.72 17.72 0 0 0-2.91.2h-.15c-10.45 1.69-20 12.55-20.63 23.11-1 18.13-14.08 38.42-14.08 38.42l24.52 6.83c14.71-10.23 22.56-32.09 27.11-43.18l8.38-3.45s1.88-22.72-22.24-21.93z" class="Cj"/><path class="a Cb Cd" d="M747.63 1201.58c-42.85 0-77.59 14.07-77.59 31.43a14.39 14.39 0 0 0 2.18 7.4c-27.82.61-49.94 9.92-49.94 21.34 0 11.83 23.65 21.41 52.82 21.41 27.8 0 50.54-8.71 52.62-19.76a185 185 0 0 0 19.91 1c42.85 0 77.59-14.07 77.59-31.44s-34.74-31.38-77.59-31.38z"/><path d="M716.21 1146.23v24c0 10.43-18.4 18.88-41.11 18.88s-41.1-8.49-41.1-18.92v-24z" fill="url(#As)"/><path d="M634,1146.23c0,10.42,18.41,18.87,41.11,18.87s41.11-8.45,41.11-18.87-18.4-18.88-41.11-18.88S634,1135.8,634,1146.23Z" fill="url(#At)"/><path d="M783.65 1047.35l-39.15-19.46a2.62 2.62 0 0 0-2.87.37l-29 25 44.73 23.37 26.89-24.79a2.75 2.75 0 0 0-.6-4.49z" fill="url(#Au)"/><path d="M783.65 1047.35l-39.15-19.46a2.66 2.66 0 0 0-1.16-.27 2.59 2.59 0 0 0-1.71.64l-29 25 44.73 23.37 26.89-24.79a2.75 2.75 0 0 0-.6-4.49zm-.49 3.25l-26 24-41.51-21.68 27.1-23.39a.93.93 0 0 1 .62-.23.9.9 0 0 1 .42.1l39.15 19.45a1.09 1.09 0 0 1 .25 1.76z" class="Cm"/><g class="CW"><path d="M767.55 1075.28l7.79-5.74c4.63-2.82 7.53-7.73 7.58-10.15s-1.43-6.43-3.08-7.2-3.91 4.74-5.53 6.69c-3.51 4.23-5.66 4.18-5.66 4.18a16.87 16.87 0 0 0 1-2c.74-1.39 1.58-2.73 2.38-4.08a.67.67 0 0 0 .12-.35.41.41 0 0 0-.31-.32c-1.93-.46-4.45 1.79-5.18 3.39s-8.33 10.1-8.33 10.1zM715 1044.79l7.3-6.36c3.75-3.91 9.17-5.68 11.55-5.21s6 2.79 6.35 4.57-5.47 2.79-7.72 3.94c-4.89 2.52-5.31 4.63-5.31 4.63a17.93 17.93 0 0 1 2.22-.57c1.52-.42 3-1 4.5-1.43a.6.6 0 0 1 .37 0 .4.4 0 0 1 .24.37c0 2-2.71 4-4.43 4.32s-11.66 6-11.66 6z"/></g><path d="M741.88,1210.15s2.3,3.35,7.38,1.43a25.32,25.32,0,0,1,10-1.67,15.11,15.11,0,0,1,5.57,1.25c1.27.58,3.83,2,4.13,3.48.81,4.07-1.74,7-5,8.91-8.92,5.11-19.11,8.26-29.45,7.2-4.44-.46-9.83-1.42-13.51-4.12,0,0,2.55-16.8,4.84-18.62Z" class="CY"/><path d="M685.36 1015.87l-2.36 13.67 22.39 2.97-1.83-11.37-18.2-5.27z" class="Ce"/><path d="M718.08 1115.45s30.4.21 29.53 27.16l-2.17 70.19s-13.76 2.83-21.58-2.39l-.91-65s-11.03-22.47-4.87-29.96z" class="Cj"/><path d="M778.38,1223.44s3.06,3,8,0a26.94,26.94,0,0,1,10.09-3.76,16,16,0,0,1,6,.18c1.43.35,4.38,1.28,5,2.79,1.65,4.07-.39,7.65-3.42,10.26-8.24,7.1-18.18,12.42-29.14,13.4-4.7.42-10.49.5-14.86-1.56,0,0-.73-18,1.29-20.31Z" class="CY"/><path d="M679.41 1004.68c1.9 13.3 13 22.7 24.78 21s19.78-13.83 17.88-27.12-13-22.7-24.78-21-19.79 13.83-17.88 27.12z" class="CW"/><path d="M654.6 1115.45l29.56 4.89 34.87 5.54 39.61 8.83a16.77 16.77 0 0 1 14.56 14.47l9.72 74.49c-9.77 9.45-26.07 2.61-26.07 2.61l-9.46-63.89s-46.28-5.65-69.75-13.37-23.04-33.57-23.04-33.57z" class="Cj"/><g class="CY"><path d="M707.87 1030.47s-11.1-.08-19.17-3.26c-8.73-3.45-15.16.45-19 4.91-3.17 3.72-16.27 88-16.27 88s42.67 16.64 65.81 8.48l-2.89-73.7s-1.54-19.9-8.48-24.43z"/><path d="M707.81 1030.48s15.49 1.65 19.7 20.31l8.73 29.89 27.08-17.68s5.64 1.75 5.22 13.53l-32.4 24.9c-3.8 2.57-9.32-.15-11.45-4.43l-16.88-34a34.4 34.4 0 0 1 0-32.52z"/></g><path d="M691 1022.88s36.54-12.19 35.72-37.26c0 0-8.79-24.26-35.72-8.93s-19.32 38.04 0 46.19z" fill="#474f84"/><path class="a Cb Cd" d="M863.36 1267.11c-42.3 0-76.59 13.89-76.59 31a14.12 14.12 0 0 0 2.16 7.3c-27.47.6-49.3 9.79-49.3 21.07 0 11.67 23.34 21.13 52.14 21.13 27.44 0 49.88-8.6 51.94-19.5a185.28 185.28 0 0 0 19.65 1c42.29 0 76.58-13.89 76.58-31s-34.29-31-76.58-31z"/><path d="M832.35,1212.47v23.65c0,10.29-18.17,18.63-40.58,18.63s-40.58-8.34-40.58-18.63v-23.65Z" fill="url(#Av)"/><path d="M751.19 1212.47c0 10.29 18.17 18.63 40.58 18.63s40.58-8.34 40.58-18.63-18.17-18.63-40.58-18.63-40.58 8.34-40.58 18.63z" fill="url(#Aw)"/><path d="M898.91 1114.87l-38.64-19.2a2.59 2.59 0 0 0-2.84.36l-28.58 24.67 44.15 23.06 26.54-24.47a2.71 2.71 0 0 0-.63-4.42z" fill="url(#Ax)"/><path d="M898.91 1114.87l-38.64-19.2a2.62 2.62 0 0 0-1.15-.27 2.55 2.55 0 0 0-1.69.63l-28.58 24.67 44.15 23.06 26.54-24.47a2.71 2.71 0 0 0-.63-4.42zm-.49 3.21l-25.69 23.68-41-21.4 26.75-23.08a.93.93 0 0 1 .61-.23.87.87 0 0 1 .42.1l38.64 19.2a1.06 1.06 0 0 1 .58.8 1.05 1.05 0 0 1-.31.93z" class="Cm"/><g class="CW"><path d="M883 1142.45l7.69-5.68c4.56-2.78 7.43-7.62 7.48-10s-1.41-6.34-3-7.1-3.86 4.68-5.45 6.6c-3.47 4.18-5.59 4.13-5.59 4.13a17.28 17.28 0 0 0 1-2c.74-1.37 1.56-2.69 2.35-4a.67.67 0 0 0 .12-.35.4.4 0 0 0-.31-.31c-1.9-.46-4.38 1.76-5.11 3.34s-8.22 10-8.22 10zm-51.88-30.1l7.21-6.28c3.7-3.86 9-5.61 11.39-5.14s5.89 2.75 6.28 4.51-5.4 2.75-7.62 3.89c-4.83 2.48-5.24 4.56-5.24 4.56a17.07 17.07 0 0 1 2.19-.55c1.49-.42 3-.94 4.44-1.42a.56.56 0 0 1 .36 0 .38.38 0 0 1 .23.37c0 2-2.67 3.89-4.36 4.26s-11.52 5.87-11.52 5.87z"/></g><path d="M857.68,1275.56s2.27,3.31,7.29,1.41a25,25,0,0,1,9.9-1.64,14.64,14.64,0,0,1,5.5,1.23c1.26.57,3.79,2,4.08,3.44.8,4-1.71,6.94-5,8.79-8.81,5-18.86,8.16-29.07,7.1-4.39-.45-9.71-1.4-13.34-4.06,0,0,2.52-16.58,4.78-18.38Z" class="CY"/><path d="M801.89 1083.8l-2.32 13.49 22.1 2.93-1.81-11.22-17.97-5.2z" class="Ce"/><path d="M834.2 1182.09s30 .21 29.14 26.81l-2.15 69.28s-13.57 2.79-21.29-2.36l-.91-64.13s-10.88-22.2-4.79-29.6z" fill="#1c75bb"/><path d="M893.71,1288.68s3,3,7.85,0a26.26,26.26,0,0,1,10-3.7,15.78,15.78,0,0,1,6,.17c1.41.35,4.32,1.26,4.92,2.75,1.64,4-.38,7.55-3.37,10.13-8.13,7-17.95,12.26-28.76,13.23-4.65.41-10.36.49-14.67-1.54,0,0-.72-17.73,1.27-20Z" class="CY"/><path d="M796 1072.76c1.88 13.12 12.83 22.4 24.46 20.74s19.53-13.66 17.65-26.78-12.84-22.4-24.46-20.74-19.51 13.66-17.65 26.78z" class="CW"/><path d="M771.53 1182.09l29.18 4.82 34.42 5.47 39.09 8.72a16.54 16.54 0 0 1 14.37 14.28l9.6 73.53c-9.65 9.33-25.73 2.57-25.73 2.57l-9.34-63.06s-45.68-5.58-68.85-13.19-22.74-33.14-22.74-33.14z" fill="#1c75bb"/><path d="M824.12 1098.21s-11-.08-18.92-3.22c-8.63-3.4-15 .44-18.73 4.85-3.14 3.67-16.06 86.9-16.06 86.9s42.11 16.42 65 8.37l-2.86-72.74s-1.55-19.73-8.43-24.16z" fill="#ee5f61"/><path d="M824.05 1098.22s15.29 1.63 19.45 20l8.61 29.51 26.74-17.45s5.57 1.73 5.15 13.36l-32 24.58c-3.75 2.53-9.2-.16-11.3-4.38l-16.67-33.56a34 34 0 0 1 .02-32.06z" fill="#ee7661"/><path d="M817.12 1043a16.79 16.79 0 0 0-2.92.19h-.2 0c-10.45 1.68-20 12.54-20.63 23.1-1 18.14-14.07 38.42-14.07 38.42l24.52 6.84c14.7-10.23 22.55-32.1 27.1-43.19l8.38-3.45s1.93-22.67-22.18-21.91z" class="Cj"/><path class="CO" d="M1119.34 1155.39c0 19.59 39.21 35.48 87.57 35.48s87.56-15.89 87.56-35.48-39.2-35.48-87.56-35.48-87.57 15.89-87.57 35.48z" fill="#2c788f" opacity=".08"/><path d="M1085.19 798.09a7.06 7.06 0 0 0 1.64 2c.8.54.74-.43.59-1.16-.41-2-1.31-3.93-1.65-6-.1-.61.06-1.83.93-1.25 2.51 1.67 3.82 5.17 5 7.83a45.34 45.34 0 0 1 2 5.76l.77 3.16c.12.61.08 2 .54 2.46a7 7 0 0 0 .62.6l-9.13 9a27.51 27.51 0 0 1-4.54-3c-3.5-2.67-4.61-4.39-6.45-8.22-1.1-2.29-3.46-3.91-5.44-5.51s-3.15-1.06-5-3.28 2.69-8.25 8.23-9.11c2.87-.45 5.73 1.06 8 2.74a21.7 21.7 0 0 1 3.22 3 10 10 0 0 1 .67.98z" class="CW"/><path d="M1153.85,843l-31.3,6.91-27-41.71s-10.17,2.43-14.69,10.08l30.24,53.36,44.8-.65Z" fill="#d9e037"/><path d="M1252.85 1139.85a26 26 0 0 0-6.74 3.07c-4.73 3-7.69 0-7.69 0l-16.49 1c-2 2.35-1.24 20.31-1.24 20.31 4.22 2.06 9.81 2 14.36 1.55 10.59-1 20.2-6.3 28.16-13.39a16.57 16.57 0 0 0 1.53-1.61c-1.21-12.61-9.74-11.42-11.89-10.93z" fill="#b64d51"/><path d="M1264.22,1148.29c-8.35,7.45-18.43,13-29.55,14.06-4.42.4-9.78.49-14.07-1.22,0,1.86.09,3.1.09,3.1,4.22,2.06,9.81,2,14.36,1.55,10.59-1,20.2-6.3,28.16-13.39a16.57,16.57,0,0,0,1.53-1.61,22.48,22.48,0,0,0-.4-2.61Z" fill="#903b42"/><path d="M1190.73 1141.78a26.59 26.59 0 0 0-7 2.45c-5 2.59-7.65-.68-7.65-.68l-16.52-.47c-2.15 2.17-3 20.12-3 20.12 4 2.42 9.6 2.83 14.16 2.82 10.64 0 20.68-4.47 29.24-10.83a15.7 15.7 0 0 0 1.68-1.46c-.13-12.68-8.78-12.25-10.91-11.95z" fill="#b64d51"/><path d="M1201.29 1151.2c-9 6.68-19.52 11.34-30.67 11.37-4.45 0-9.79-.38-13.91-2.47l-.19 3.1c4 2.42 9.6 2.83 14.16 2.82 10.64 0 20.68-4.47 29.24-10.83a15.7 15.7 0 0 0 1.68-1.46 23.32 23.32 0 0 0-.18-2.64.69.69 0 0 1-.13.11z" fill="#903b42"/><path d="M1303.1 884.06l5.08 14.41c11.73.25 14.75-1.06 20.35-4.28s7.35-4.83 7.26-10.56-5.84-5.19-5.84-5.19c-9.25 4.42-15.4 4.42-15.4 4.42s.06-2.6 4.39-4.72 2-4.41 2-4.41-1.76-1.07-6.86 2a88.08 88.08 0 0 0-10.98 8.33z" class="Ci"/><g fill="#328dcc"><path d="M1221.34,971.51l31.05,76.92-6.63,95.33s-14.57,8.39-27.14,2.16l4.19-92.35L1178,983.16Z"/><path d="M1186.66,980.84l1.86,75.71-4.44,88.83s-17.82,4.33-27.76-1.08l2.35-89.38-5.5-81.24Z"/></g><path d="M1229.87 973.48c.08-5.15-4.5-49.12-4.5-49.12-.73-34.56-4.06-76.77-4.06-76.77l-25.67-6.53-25.81-3-11 3.18a10.36 10.36 0 0 0-9.31 8.67 115.74 115.74 0 0 0-1.2 19.68c.19 7.1 2.58 14.24 3.58 21.32 3.89 27.44-.47 54.2-2.47 81.57 0 0-.15 2.1 2.59 4.07 21 16.82 74.33 6.09 74.33 6.09 4.77-.74 3.45-5.13 3.52-9.16z" fill="#bad654"/><path d="M1169.62 783.4c6.36-1.29 15.1-1.87 21.37-.4 10.57 2.47 16.57 8.57 19.55 17.89s4.53 25.23-.74 34.31c-3.3 5.69-11.29 5-17 3.82-6.94-1.43-16.06-3.85-21.88-7.65-8.11-5.3-12.87-17.49-13.78-26.41-.83-7.69 2.76-19.6 12.48-21.56z" class="Ci"/><path d="M1169.33,827.47A21.14,21.14,0,0,0,1172,830c5.59,4.36,14.32,7.18,21,8.86,1.06.27,2.21.49,3.38.67l-.71,1.53c-6.85,2.47-13.26,4.71-18.15,3.41-3.64-1-7.47-2.52-7.68-6.79l-.5-10.21Z" fill="#f6a3a8"/><path d="M1304.15 880.64l-46.48 15.56-36.36-48.61c-23.56 10.34 0 43.07 0 43.07l24.74 29.34a9.13 9.13 0 0 0 10.4 2.58l55-22.1c2.94-10.25-7.3-19.84-7.3-19.84z" fill="#d9e037"/><path d="M1212.38 775.89a25.56 25.56 0 0 1-1.72 5.4 25.86 25.86 0 0 0-2.88-1.13 57 57 0 0 0-18-3.32c-7.37 0-17.11 1.32-23.29 5.29-7.75 5-11.4 14.8-10.43 24.23.92 8.92 6.74 19.71 14.85 25 4.48 2.92 4.69 3.27 10.58 4.74 30.77-5 13.12-31.67 13.12-31.67 2.67-1.68 7.89-4 16-3.55-.07.01 15.54-8.17 1.77-24.99z" fill="#b74e52"/></g></g></svg>